ISO-10303-21;
HEADER;
/* Generated by software containing ST-Developer
 * from STEP Tools, Inc. (www.steptools.com) 
 */

FILE_DESCRIPTION(
/* description */ (''),
/* implementation_level */ '2;1');

FILE_NAME(
/* name */ 'SurroundMutation.step',
/* time_stamp */ '2026-04-20T18:52:54-06:00',
/* author */ (''),
/* organization */ (''),
/* preprocessor_version */ 'ST-DEVELOPER v20.1',
/* originating_system */ 'Autodesk Translation Framework v15.8.0.0',
/* authorisation */ '');

FILE_SCHEMA (('AUTOMOTIVE_DESIGN { 1 0 10303 214 3 1 1 }'));
ENDSEC;

DATA;
#10=MECHANICAL_DESIGN_GEOMETRIC_PRESENTATION_REPRESENTATION('',(#13),#1371);
#11=SHAPE_REPRESENTATION_RELATIONSHIP('SRR','None',#1378,#12);
#12=ADVANCED_BREP_SHAPE_REPRESENTATION('',(#14),#1370);
#13=STYLED_ITEM('',(#1387),#14);
#14=MANIFOLD_SOLID_BREP('Body1',#511);
#15=CYLINDRICAL_SURFACE('',#540,251.143);
#16=CYLINDRICAL_SURFACE('',#542,184.784629829633);
#17=(
BOUNDED_CURVE()
B_SPLINE_CURVE(3,(#942,#943,#944,#945),.UNSPECIFIED.,.F.,.F.)
B_SPLINE_CURVE_WITH_KNOTS((4,4),(-0.997562851874745,-0.00243622757470638),
 .UNSPECIFIED.)
CURVE()
GEOMETRIC_REPRESENTATION_ITEM()
RATIONAL_B_SPLINE_CURVE((1.,1.,1.,1.))
REPRESENTATION_ITEM('')
);
#18=(
BOUNDED_CURVE()
B_SPLINE_CURVE(3,(#946,#947,#948,#949),.UNSPECIFIED.,.F.,.F.)
B_SPLINE_CURVE_WITH_KNOTS((4,4),(-0.997562851874629,-0.00243622757474786),
 .UNSPECIFIED.)
CURVE()
GEOMETRIC_REPRESENTATION_ITEM()
RATIONAL_B_SPLINE_CURVE((1.,1.,1.,1.))
REPRESENTATION_ITEM('')
);
#19=(
BOUNDED_CURVE()
B_SPLINE_CURVE(3,(#962,#963,#964,#965),.UNSPECIFIED.,.F.,.F.)
B_SPLINE_CURVE_WITH_KNOTS((4,4),(-0.997562851874629,-0.00243622757476136),
 .UNSPECIFIED.)
CURVE()
GEOMETRIC_REPRESENTATION_ITEM()
RATIONAL_B_SPLINE_CURVE((1.,1.,1.,1.))
REPRESENTATION_ITEM('')
);
#20=(
BOUNDED_CURVE()
B_SPLINE_CURVE(3,(#974,#975,#976,#977),.UNSPECIFIED.,.F.,.F.)
B_SPLINE_CURVE_WITH_KNOTS((4,4),(0.00243622757476138,0.997562851874743),
 .UNSPECIFIED.)
CURVE()
GEOMETRIC_REPRESENTATION_ITEM()
RATIONAL_B_SPLINE_CURVE((1.,1.,1.,1.))
REPRESENTATION_ITEM('')
);
#21=(
BOUNDED_CURVE()
B_SPLINE_CURVE(3,(#1140,#1141,#1142,#1143),.UNSPECIFIED.,.F.,.F.)
B_SPLINE_CURVE_WITH_KNOTS((4,4),(0.0024953049579438,0.997503752035132),
 .UNSPECIFIED.)
CURVE()
GEOMETRIC_REPRESENTATION_ITEM()
RATIONAL_B_SPLINE_CURVE((1.,1.,1.,1.))
REPRESENTATION_ITEM('')
);
#22=(
BOUNDED_CURVE()
B_SPLINE_CURVE(3,(#1167,#1168,#1169,#1170),.UNSPECIFIED.,.F.,.F.)
B_SPLINE_CURVE_WITH_KNOTS((4,4),(0.00249530495794381,0.997503752035132),
 .UNSPECIFIED.)
CURVE()
GEOMETRIC_REPRESENTATION_ITEM()
RATIONAL_B_SPLINE_CURVE((1.,1.,1.,1.))
REPRESENTATION_ITEM('')
);
#23=(
BOUNDED_CURVE()
B_SPLINE_CURVE(3,(#1323,#1324,#1325,#1326),.UNSPECIFIED.,.F.,.F.)
B_SPLINE_CURVE_WITH_KNOTS((4,4),(0.00249530495801975,0.997503752035133),
 .UNSPECIFIED.)
CURVE()
GEOMETRIC_REPRESENTATION_ITEM()
RATIONAL_B_SPLINE_CURVE((1.,1.,1.,1.))
REPRESENTATION_ITEM('')
);
#24=(
BOUNDED_CURVE()
B_SPLINE_CURVE(3,(#1341,#1342,#1343,#1344),.UNSPECIFIED.,.F.,.F.)
B_SPLINE_CURVE_WITH_KNOTS((4,4),(0.00249530495824985,0.997503752035134),
 .UNSPECIFIED.)
CURVE()
GEOMETRIC_REPRESENTATION_ITEM()
RATIONAL_B_SPLINE_CURVE((1.,1.,1.,1.))
REPRESENTATION_ITEM('')
);
#25=(
BOUNDED_SURFACE()
B_SPLINE_SURFACE(3,1,((#934,#935),(#936,#937),(#938,#939),(#940,#941)),
 .UNSPECIFIED.,.F.,.F.,.F.)
B_SPLINE_SURFACE_WITH_KNOTS((4,4),(2,2),(-1.,0.),(0.,16.9545),
 .UNSPECIFIED.)
GEOMETRIC_REPRESENTATION_ITEM()
RATIONAL_B_SPLINE_SURFACE(((1.,1.),(1.,1.),(1.,1.),(1.,1.)))
REPRESENTATION_ITEM('')
SURFACE()
);
#26=(
BOUNDED_SURFACE()
B_SPLINE_SURFACE(3,2,((#950,#951,#952),(#953,#954,#955),(#956,#957,#958),
(#959,#960,#961)),.UNSPECIFIED.,.F.,.F.,.F.)
B_SPLINE_SURFACE_WITH_KNOTS((4,4),(3,3),(-1.,0.),(0.,1.5707963267949),
 .UNSPECIFIED.)
GEOMETRIC_REPRESENTATION_ITEM()
RATIONAL_B_SPLINE_SURFACE(((1.,0.707106781186548,1.),(1.,0.707106781186548,
1.),(1.,0.707106781186548,1.),(1.,0.707106781186548,1.)))
REPRESENTATION_ITEM('')
SURFACE()
);
#27=(
BOUNDED_SURFACE()
B_SPLINE_SURFACE(3,1,((#966,#967),(#968,#969),(#970,#971),(#972,#973)),
 .UNSPECIFIED.,.F.,.F.,.F.)
B_SPLINE_SURFACE_WITH_KNOTS((4,4),(2,2),(-1.,0.),(0.,32.94495),
 .UNSPECIFIED.)
GEOMETRIC_REPRESENTATION_ITEM()
RATIONAL_B_SPLINE_SURFACE(((1.,1.),(1.,1.),(1.,1.),(1.,1.)))
REPRESENTATION_ITEM('')
SURFACE()
);
#28=(
BOUNDED_SURFACE()
B_SPLINE_SURFACE(3,1,((#1158,#1159),(#1160,#1161),(#1162,#1163),(#1164,
#1165)),.UNSPECIFIED.,.F.,.F.,.F.)
B_SPLINE_SURFACE_WITH_KNOTS((4,4),(2,2),(0.,1.),(0.,32.94495),
 .UNSPECIFIED.)
GEOMETRIC_REPRESENTATION_ITEM()
RATIONAL_B_SPLINE_SURFACE(((1.,1.),(1.,1.),(1.,1.),(1.,1.)))
REPRESENTATION_ITEM('')
SURFACE()
);
#29=(
BOUNDED_SURFACE()
B_SPLINE_SURFACE(3,2,((#1311,#1312,#1313),(#1314,#1315,#1316),(#1317,#1318,
#1319),(#1320,#1321,#1322)),.UNSPECIFIED.,.F.,.F.,.F.)
B_SPLINE_SURFACE_WITH_KNOTS((4,4),(3,3),(0.,1.),(0.,1.5707963267949),
 .UNSPECIFIED.)
GEOMETRIC_REPRESENTATION_ITEM()
RATIONAL_B_SPLINE_SURFACE(((1.,0.707106781186548,1.),(1.,0.707106781186548,
1.),(1.,0.707106781186548,1.),(1.,0.707106781186548,1.)))
REPRESENTATION_ITEM('')
SURFACE()
);
#30=(
BOUNDED_SURFACE()
B_SPLINE_SURFACE(3,1,((#1333,#1334),(#1335,#1336),(#1337,#1338),(#1339,
#1340)),.UNSPECIFIED.,.F.,.F.,.F.)
B_SPLINE_SURFACE_WITH_KNOTS((4,4),(2,2),(0.,1.),(0.,16.9545),
 .UNSPECIFIED.)
GEOMETRIC_REPRESENTATION_ITEM()
RATIONAL_B_SPLINE_SURFACE(((1.,1.),(1.,1.),(1.,1.),(1.,1.)))
REPRESENTATION_ITEM('')
SURFACE()
);
#31=LINE('',#776,#55);
#32=LINE('',#778,#56);
#33=LINE('',#782,#57);
#34=LINE('',#783,#58);
#35=LINE('',#1130,#59);
#36=LINE('',#1132,#60);
#37=LINE('',#1136,#61);
#38=LINE('',#1137,#62);
#39=LINE('',#1153,#63);
#40=LINE('',#1154,#64);
#41=LINE('',#1156,#65);
#42=LINE('',#1157,#66);
#43=LINE('',#1329,#67);
#44=LINE('',#1331,#68);
#45=LINE('',#1332,#69);
#46=LINE('',#1347,#70);
#47=LINE('',#1349,#71);
#48=LINE('',#1350,#72);
#49=LINE('',#1353,#73);
#50=LINE('',#1357,#74);
#51=LINE('',#1360,#75);
#52=LINE('',#1361,#76);
#53=LINE('',#1364,#77);
#54=LINE('',#1365,#78);
#55=VECTOR('',#557,10.);
#56=VECTOR('',#558,10.);
#57=VECTOR('',#561,10.);
#58=VECTOR('',#562,10.);
#59=VECTOR('',#573,10.);
#60=VECTOR('',#574,10.);
#61=VECTOR('',#577,10.);
#62=VECTOR('',#578,10.);
#63=VECTOR('',#581,10.);
#64=VECTOR('',#582,10.);
#65=VECTOR('',#583,10.);
#66=VECTOR('',#584,10.);
#67=VECTOR('',#591,10.);
#68=VECTOR('',#592,10.);
#69=VECTOR('',#593,10.);
#70=VECTOR('',#596,10.);
#71=VECTOR('',#597,10.);
#72=VECTOR('',#598,10.);
#73=VECTOR('',#601,10.);
#74=VECTOR('',#606,10.);
#75=VECTOR('',#611,10.);
#76=VECTOR('',#612,10.);
#77=VECTOR('',#617,10.);
#78=VECTOR('',#618,10.);
#79=PLANE('',#527);
#80=PLANE('',#533);
#81=PLANE('',#535);
#82=PLANE('',#538);
#83=PLANE('',#539);
#84=PLANE('',#544);
#85=PLANE('',#545);
#86=PLANE('',#546);
#87=PLANE('',#547);
#88=PLANE('',#548);
#89=FACE_OUTER_BOUND('',#119,.T.);
#90=FACE_OUTER_BOUND('',#120,.T.);
#91=FACE_OUTER_BOUND('',#121,.T.);
#92=FACE_OUTER_BOUND('',#122,.T.);
#93=FACE_OUTER_BOUND('',#123,.T.);
#94=FACE_OUTER_BOUND('',#124,.T.);
#95=FACE_OUTER_BOUND('',#125,.T.);
#96=FACE_OUTER_BOUND('',#126,.T.);
#97=FACE_OUTER_BOUND('',#127,.T.);
#98=FACE_OUTER_BOUND('',#128,.T.);
#99=FACE_OUTER_BOUND('',#129,.T.);
#100=FACE_OUTER_BOUND('',#130,.T.);
#101=FACE_OUTER_BOUND('',#131,.T.);
#102=FACE_OUTER_BOUND('',#132,.T.);
#103=FACE_OUTER_BOUND('',#133,.T.);
#104=FACE_OUTER_BOUND('',#134,.T.);
#105=FACE_OUTER_BOUND('',#135,.T.);
#106=FACE_OUTER_BOUND('',#136,.T.);
#107=FACE_OUTER_BOUND('',#137,.T.);
#108=FACE_OUTER_BOUND('',#138,.T.);
#109=FACE_OUTER_BOUND('',#139,.T.);
#110=FACE_OUTER_BOUND('',#140,.T.);
#111=FACE_OUTER_BOUND('',#141,.T.);
#112=FACE_OUTER_BOUND('',#142,.T.);
#113=FACE_OUTER_BOUND('',#143,.T.);
#114=FACE_OUTER_BOUND('',#144,.T.);
#115=FACE_OUTER_BOUND('',#145,.T.);
#116=FACE_OUTER_BOUND('',#146,.T.);
#117=FACE_OUTER_BOUND('',#147,.T.);
#118=FACE_OUTER_BOUND('',#148,.T.);
#119=EDGE_LOOP('',(#317,#318,#319,#320));
#120=EDGE_LOOP('',(#321,#322,#323,#324));
#121=EDGE_LOOP('',(#325,#326,#327,#328));
#122=EDGE_LOOP('',(#329,#330,#331,#332,#333,#334,#335,#336));
#123=EDGE_LOOP('',(#337,#338,#339,#340));
#124=EDGE_LOOP('',(#341,#342,#343,#344));
#125=EDGE_LOOP('',(#345,#346,#347,#348));
#126=EDGE_LOOP('',(#349,#350,#351,#352));
#127=EDGE_LOOP('',(#353,#354,#355,#356));
#128=EDGE_LOOP('',(#357,#358,#359,#360));
#129=EDGE_LOOP('',(#361,#362,#363,#364));
#130=EDGE_LOOP('',(#365,#366,#367,#368));
#131=EDGE_LOOP('',(#369,#370,#371,#372));
#132=EDGE_LOOP('',(#373,#374,#375,#376,#377,#378,#379,#380));
#133=EDGE_LOOP('',(#381,#382,#383,#384,#385,#386,#387,#388,#389,#390,#391,
#392));
#134=EDGE_LOOP('',(#393,#394,#395,#396));
#135=EDGE_LOOP('',(#397,#398,#399,#400));
#136=EDGE_LOOP('',(#401,#402,#403,#404));
#137=EDGE_LOOP('',(#405,#406,#407,#408));
#138=EDGE_LOOP('',(#409,#410,#411,#412));
#139=EDGE_LOOP('',(#413,#414,#415,#416));
#140=EDGE_LOOP('',(#417,#418,#419,#420));
#141=EDGE_LOOP('',(#421,#422,#423,#424));
#142=EDGE_LOOP('',(#425,#426,#427,#428));
#143=EDGE_LOOP('',(#429,#430,#431,#432));
#144=EDGE_LOOP('',(#433,#434,#435,#436,#437,#438,#439,#440));
#145=EDGE_LOOP('',(#441,#442,#443,#444));
#146=EDGE_LOOP('',(#445,#446,#447,#448,#449,#450,#451,#452));
#147=EDGE_LOOP('',(#453,#454,#455,#456));
#148=EDGE_LOOP('',(#457,#458,#459,#460,#461,#462,#463,#464,#465,#466,#467,
#468));
#149=CIRCLE('',#525,0.5);
#150=CIRCLE('',#526,0.5);
#151=CIRCLE('',#528,184.784629829633);
#152=CIRCLE('',#529,0.499999999999981);
#153=CIRCLE('',#530,0.500000000000051);
#154=CIRCLE('',#531,0.499999999999992);
#155=CIRCLE('',#532,0.499999999999997);
#156=CIRCLE('',#534,251.143);
#157=CIRCLE('',#536,0.499999999999918);
#158=CIRCLE('',#537,0.499999999999999);
#159=CIRCLE('',#541,251.143);
#160=CIRCLE('',#543,184.784629829633);
#161=B_SPLINE_CURVE_WITH_KNOTS('',3,(#646,#647,#648,#649,#650,#651,#652),
 .UNSPECIFIED.,.F.,.F.,(4,3,4),(0.,0.0376750159988943,0.0753500319977886),
 .UNSPECIFIED.);
#162=B_SPLINE_CURVE_WITH_KNOTS('',3,(#654,#655,#656,#657),.UNSPECIFIED.,
 .F.,.F.,(4,4),(0.,32.94495),.UNSPECIFIED.);
#163=B_SPLINE_CURVE_WITH_KNOTS('',3,(#660,#661,#662,#663),.UNSPECIFIED.,
 .F.,.F.,(4,4),(-32.94495,0.),.UNSPECIFIED.);
#164=B_SPLINE_CURVE_WITH_KNOTS('',3,(#717,#718,#719,#720,#721,#722,#723,
#724,#725,#726),.UNSPECIFIED.,.F.,.F.,(4,1,1,1,1,1,1,4),(-31.307523176291,
-26.8350198653923,-22.3625165544936,-17.8900132435949,-13.4175099326962,
-8.94500662179744,-4.47250331089872,0.),.UNSPECIFIED.);
#165=B_SPLINE_CURVE_WITH_KNOTS('',3,(#727,#728,#729,#730,#731,#732,#733,
#734,#735,#736),.UNSPECIFIED.,.F.,.F.,(4,1,1,1,1,1,1,4),(0.,4.47250331089872,
8.94500662179744,13.4175099326962,17.8900132435949,22.3625165544936,26.8350198653923,
31.307523176291),.UNSPECIFIED.);
#166=B_SPLINE_CURVE_WITH_KNOTS('',3,(#759,#760,#761,#762,#763,#764,#765),
 .UNSPECIFIED.,.F.,.F.,(4,3,4),(0.,0.0376750159988955,0.075350031997791),
 .UNSPECIFIED.);
#167=B_SPLINE_CURVE_WITH_KNOTS('',3,(#766,#767,#768,#769),.UNSPECIFIED.,
 .F.,.F.,(4,4),(-16.9545,-2.48854122914372E-15),.UNSPECIFIED.);
#168=B_SPLINE_CURVE_WITH_KNOTS('',3,(#770,#771,#772,#773),.UNSPECIFIED.,
 .F.,.F.,(4,4),(2.48854122914372E-15,16.9545),.UNSPECIFIED.);
#169=B_SPLINE_CURVE_WITH_KNOTS('',3,(#806,#807,#808,#809,#810,#811,#812),
 .UNSPECIFIED.,.F.,.F.,(4,3,4),(0.,0.0376838891446636,0.0753677782893272),
 .UNSPECIFIED.);
#170=B_SPLINE_CURVE_WITH_KNOTS('',3,(#814,#815,#816,#817),.UNSPECIFIED.,
 .F.,.F.,(4,4),(-1.20382623224631E-34,32.94495),.UNSPECIFIED.);
#171=B_SPLINE_CURVE_WITH_KNOTS('',3,(#820,#821,#822,#823),.UNSPECIFIED.,
 .F.,.F.,(4,4),(-32.94495,1.20382623224631E-34),.UNSPECIFIED.);
#172=B_SPLINE_CURVE_WITH_KNOTS('',3,(#877,#878,#879,#880,#881,#882,#883,
#884,#885,#886),.UNSPECIFIED.,.F.,.F.,(4,1,1,1,1,1,1,4),(-37.1653658823834,
-31.8560278991857,-26.5466899159881,-21.2373519327905,-15.9280139495929,
-10.6186759663952,-5.30933798319762,0.),.UNSPECIFIED.);
#173=B_SPLINE_CURVE_WITH_KNOTS('',3,(#887,#888,#889,#890,#891,#892,#893,
#894,#895,#896),.UNSPECIFIED.,.F.,.F.,(4,1,1,1,1,1,1,4),(0.,5.30933798319762,
10.6186759663952,15.9280139495929,21.2373519327905,26.5466899159881,31.8560278991857,
37.1653658823834),.UNSPECIFIED.);
#174=B_SPLINE_CURVE_WITH_KNOTS('',3,(#919,#920,#921,#922,#923,#924,#925),
 .UNSPECIFIED.,.F.,.F.,(4,3,4),(0.,0.037683889144667,0.0753677782893341),
 .UNSPECIFIED.);
#175=B_SPLINE_CURVE_WITH_KNOTS('',3,(#926,#927,#928,#929),.UNSPECIFIED.,
 .F.,.F.,(4,4),(-16.9545,0.),.UNSPECIFIED.);
#176=B_SPLINE_CURVE_WITH_KNOTS('',3,(#930,#931,#932,#933),.UNSPECIFIED.,
 .F.,.F.,(4,4),(0.,16.9545),.UNSPECIFIED.);
#177=B_SPLINE_CURVE_WITH_KNOTS('',3,(#1000,#1001,#1002,#1003,#1004,#1005,
#1006),.UNSPECIFIED.,.F.,.F.,(4,3,4),(0.,0.0376938164406757,0.0753876328813513),
 .UNSPECIFIED.);
#178=B_SPLINE_CURVE_WITH_KNOTS('',3,(#1008,#1009,#1010,#1011),
 .UNSPECIFIED.,.F.,.F.,(4,4),(0.,32.94495),.UNSPECIFIED.);
#179=B_SPLINE_CURVE_WITH_KNOTS('',3,(#1014,#1015,#1016,#1017),
 .UNSPECIFIED.,.F.,.F.,(4,4),(-32.94495,0.),.UNSPECIFIED.);
#180=B_SPLINE_CURVE_WITH_KNOTS('',3,(#1071,#1072,#1073,#1074,#1075,#1076,
#1077,#1078,#1079,#1080),.UNSPECIFIED.,.F.,.F.,(4,1,1,1,1,1,1,4),(-36.6924202158874,
-31.4506458993321,-26.2088715827767,-20.9670972662214,-15.725322949666,
-10.4835486331107,-5.24177431655535,0.),.UNSPECIFIED.);
#181=B_SPLINE_CURVE_WITH_KNOTS('',3,(#1081,#1082,#1083,#1084,#1085,#1086,
#1087,#1088,#1089,#1090),.UNSPECIFIED.,.F.,.F.,(4,1,1,1,1,1,1,4),(0.,5.24177431655535,
10.4835486331107,15.725322949666,20.9670972662214,26.2088715827767,31.4506458993321,
36.6924202158874),.UNSPECIFIED.);
#182=B_SPLINE_CURVE_WITH_KNOTS('',3,(#1113,#1114,#1115,#1116,#1117,#1118,
#1119),.UNSPECIFIED.,.F.,.F.,(4,3,4),(0.,0.0376938164406751,0.0753876328813502),
 .UNSPECIFIED.);
#183=B_SPLINE_CURVE_WITH_KNOTS('',3,(#1120,#1121,#1122,#1123),
 .UNSPECIFIED.,.F.,.F.,(4,4),(-16.9545,0.),.UNSPECIFIED.);
#184=B_SPLINE_CURVE_WITH_KNOTS('',3,(#1124,#1125,#1126,#1127),
 .UNSPECIFIED.,.F.,.F.,(4,4),(0.,16.9545),.UNSPECIFIED.);
#185=B_SPLINE_CURVE_WITH_KNOTS('',3,(#1145,#1146,#1147,#1148,#1149,#1150,
#1151),.UNSPECIFIED.,.F.,.F.,(4,3,4),(0.,0.0376849389871718,0.0753698779743435),
 .UNSPECIFIED.);
#186=B_SPLINE_CURVE_WITH_KNOTS('',3,(#1171,#1172,#1173,#1174),
 .UNSPECIFIED.,.F.,.F.,(4,4),(-1.77635683940025E-15,32.94495),
 .UNSPECIFIED.);
#187=B_SPLINE_CURVE_WITH_KNOTS('',3,(#1197,#1198,#1199,#1200),
 .UNSPECIFIED.,.F.,.F.,(4,4),(-32.94495,1.77635683940025E-15),
 .UNSPECIFIED.);
#188=B_SPLINE_CURVE_WITH_KNOTS('',3,(#1254,#1255,#1256,#1257,#1258,#1259,
#1260,#1261,#1262,#1263),.UNSPECIFIED.,.F.,.F.,(4,1,1,1,1,1,1,4),(-31.8439742827676,
-27.294835099515,-22.7456959162625,-18.19655673301,-13.6474175497575,-9.09827836650502,
-4.54913918325251,-7.09437784127064E-15),.UNSPECIFIED.);
#189=B_SPLINE_CURVE_WITH_KNOTS('',3,(#1264,#1265,#1266,#1267,#1268,#1269,
#1270,#1271,#1272,#1273),.UNSPECIFIED.,.F.,.F.,(4,1,1,1,1,1,1,4),(7.09437784127064E-15,
4.54913918325251,9.09827836650502,13.6474175497575,18.19655673301,22.7456959162625,
27.294835099515,31.8439742827676),.UNSPECIFIED.);
#190=B_SPLINE_CURVE_WITH_KNOTS('',3,(#1296,#1297,#1298,#1299,#1300,#1301,
#1302),.UNSPECIFIED.,.F.,.F.,(4,3,4),(0.,0.0376849389871626,0.0753698779743252),
 .UNSPECIFIED.);
#191=B_SPLINE_CURVE_WITH_KNOTS('',3,(#1303,#1304,#1305,#1306),
 .UNSPECIFIED.,.F.,.F.,(4,4),(-16.9545,-6.53696535317473E-15),
 .UNSPECIFIED.);
#192=B_SPLINE_CURVE_WITH_KNOTS('',3,(#1307,#1308,#1309,#1310),
 .UNSPECIFIED.,.F.,.F.,(4,4),(6.53696535317473E-15,16.9545),
 .UNSPECIFIED.);
#193=VERTEX_POINT('',#644);
#194=VERTEX_POINT('',#645);
#195=VERTEX_POINT('',#653);
#196=VERTEX_POINT('',#658);
#197=VERTEX_POINT('',#714);
#198=VERTEX_POINT('',#715);
#199=VERTEX_POINT('',#757);
#200=VERTEX_POINT('',#758);
#201=VERTEX_POINT('',#775);
#202=VERTEX_POINT('',#777);
#203=VERTEX_POINT('',#779);
#204=VERTEX_POINT('',#781);
#205=VERTEX_POINT('',#804);
#206=VERTEX_POINT('',#805);
#207=VERTEX_POINT('',#813);
#208=VERTEX_POINT('',#818);
#209=VERTEX_POINT('',#874);
#210=VERTEX_POINT('',#875);
#211=VERTEX_POINT('',#917);
#212=VERTEX_POINT('',#918);
#213=VERTEX_POINT('',#998);
#214=VERTEX_POINT('',#999);
#215=VERTEX_POINT('',#1007);
#216=VERTEX_POINT('',#1012);
#217=VERTEX_POINT('',#1068);
#218=VERTEX_POINT('',#1069);
#219=VERTEX_POINT('',#1111);
#220=VERTEX_POINT('',#1112);
#221=VERTEX_POINT('',#1129);
#222=VERTEX_POINT('',#1131);
#223=VERTEX_POINT('',#1133);
#224=VERTEX_POINT('',#1135);
#225=VERTEX_POINT('',#1139);
#226=VERTEX_POINT('',#1144);
#227=VERTEX_POINT('',#1152);
#228=VERTEX_POINT('',#1155);
#229=VERTEX_POINT('',#1166);
#230=VERTEX_POINT('',#1195);
#231=VERTEX_POINT('',#1251);
#232=VERTEX_POINT('',#1252);
#233=VERTEX_POINT('',#1294);
#234=VERTEX_POINT('',#1295);
#235=VERTEX_POINT('',#1328);
#236=VERTEX_POINT('',#1330);
#237=VERTEX_POINT('',#1346);
#238=VERTEX_POINT('',#1348);
#239=VERTEX_POINT('',#1352);
#240=VERTEX_POINT('',#1356);
#241=EDGE_CURVE('',#193,#194,#161,.T.);
#242=EDGE_CURVE('',#194,#195,#162,.T.);
#243=EDGE_CURVE('',#195,#196,#149,.T.);
#244=EDGE_CURVE('',#196,#193,#163,.T.);
#245=EDGE_CURVE('',#197,#198,#150,.T.);
#246=EDGE_CURVE('',#198,#196,#164,.T.);
#247=EDGE_CURVE('',#195,#197,#165,.T.);
#248=EDGE_CURVE('',#199,#200,#166,.T.);
#249=EDGE_CURVE('',#200,#198,#167,.T.);
#250=EDGE_CURVE('',#197,#199,#168,.T.);
#251=EDGE_CURVE('',#194,#201,#31,.T.);
#252=EDGE_CURVE('',#201,#202,#32,.T.);
#253=EDGE_CURVE('',#202,#203,#151,.T.);
#254=EDGE_CURVE('',#203,#204,#33,.T.);
#255=EDGE_CURVE('',#199,#204,#34,.T.);
#256=EDGE_CURVE('',#205,#206,#169,.T.);
#257=EDGE_CURVE('',#206,#207,#170,.T.);
#258=EDGE_CURVE('',#207,#208,#152,.T.);
#259=EDGE_CURVE('',#208,#205,#171,.T.);
#260=EDGE_CURVE('',#209,#210,#153,.T.);
#261=EDGE_CURVE('',#210,#208,#172,.T.);
#262=EDGE_CURVE('',#207,#209,#173,.T.);
#263=EDGE_CURVE('',#211,#212,#174,.T.);
#264=EDGE_CURVE('',#212,#210,#175,.T.);
#265=EDGE_CURVE('',#209,#211,#176,.T.);
#266=EDGE_CURVE('',#211,#200,#17,.T.);
#267=EDGE_CURVE('',#209,#198,#18,.T.);
#268=EDGE_CURVE('',#207,#196,#19,.T.);
#269=EDGE_CURVE('',#193,#206,#20,.T.);
#270=EDGE_CURVE('',#213,#214,#177,.T.);
#271=EDGE_CURVE('',#214,#215,#178,.T.);
#272=EDGE_CURVE('',#215,#216,#154,.T.);
#273=EDGE_CURVE('',#216,#213,#179,.T.);
#274=EDGE_CURVE('',#217,#218,#155,.T.);
#275=EDGE_CURVE('',#218,#216,#180,.T.);
#276=EDGE_CURVE('',#215,#217,#181,.T.);
#277=EDGE_CURVE('',#219,#220,#182,.T.);
#278=EDGE_CURVE('',#220,#218,#183,.T.);
#279=EDGE_CURVE('',#217,#219,#184,.T.);
#280=EDGE_CURVE('',#214,#221,#35,.T.);
#281=EDGE_CURVE('',#221,#222,#36,.T.);
#282=EDGE_CURVE('',#222,#223,#156,.T.);
#283=EDGE_CURVE('',#223,#224,#37,.T.);
#284=EDGE_CURVE('',#219,#224,#38,.T.);
#285=EDGE_CURVE('',#225,#213,#21,.T.);
#286=EDGE_CURVE('',#226,#225,#185,.T.);
#287=EDGE_CURVE('',#227,#226,#39,.T.);
#288=EDGE_CURVE('',#201,#227,#40,.T.);
#289=EDGE_CURVE('',#228,#205,#41,.T.);
#290=EDGE_CURVE('',#221,#228,#42,.T.);
#291=EDGE_CURVE('',#229,#216,#22,.T.);
#292=EDGE_CURVE('',#225,#229,#186,.T.);
#293=EDGE_CURVE('',#229,#230,#157,.T.);
#294=EDGE_CURVE('',#230,#226,#187,.T.);
#295=EDGE_CURVE('',#231,#232,#158,.T.);
#296=EDGE_CURVE('',#232,#230,#188,.T.);
#297=EDGE_CURVE('',#229,#231,#189,.T.);
#298=EDGE_CURVE('',#233,#234,#190,.T.);
#299=EDGE_CURVE('',#234,#232,#191,.T.);
#300=EDGE_CURVE('',#231,#233,#192,.T.);
#301=EDGE_CURVE('',#231,#218,#23,.T.);
#302=EDGE_CURVE('',#223,#235,#43,.T.);
#303=EDGE_CURVE('',#235,#236,#44,.T.);
#304=EDGE_CURVE('',#224,#236,#45,.T.);
#305=EDGE_CURVE('',#233,#220,#24,.T.);
#306=EDGE_CURVE('',#203,#237,#46,.T.);
#307=EDGE_CURVE('',#237,#238,#47,.T.);
#308=EDGE_CURVE('',#204,#238,#48,.T.);
#309=EDGE_CURVE('',#222,#239,#49,.T.);
#310=EDGE_CURVE('',#239,#235,#159,.T.);
#311=EDGE_CURVE('',#202,#240,#50,.T.);
#312=EDGE_CURVE('',#240,#237,#160,.T.);
#313=EDGE_CURVE('',#236,#212,#51,.T.);
#314=EDGE_CURVE('',#228,#239,#52,.T.);
#315=EDGE_CURVE('',#238,#234,#53,.T.);
#316=EDGE_CURVE('',#227,#240,#54,.T.);
#317=ORIENTED_EDGE('',*,*,#241,.T.);
#318=ORIENTED_EDGE('',*,*,#242,.T.);
#319=ORIENTED_EDGE('',*,*,#243,.T.);
#320=ORIENTED_EDGE('',*,*,#244,.T.);
#321=ORIENTED_EDGE('',*,*,#245,.T.);
#322=ORIENTED_EDGE('',*,*,#246,.T.);
#323=ORIENTED_EDGE('',*,*,#243,.F.);
#324=ORIENTED_EDGE('',*,*,#247,.T.);
#325=ORIENTED_EDGE('',*,*,#248,.T.);
#326=ORIENTED_EDGE('',*,*,#249,.T.);
#327=ORIENTED_EDGE('',*,*,#245,.F.);
#328=ORIENTED_EDGE('',*,*,#250,.T.);
#329=ORIENTED_EDGE('',*,*,#250,.F.);
#330=ORIENTED_EDGE('',*,*,#247,.F.);
#331=ORIENTED_EDGE('',*,*,#242,.F.);
#332=ORIENTED_EDGE('',*,*,#251,.T.);
#333=ORIENTED_EDGE('',*,*,#252,.T.);
#334=ORIENTED_EDGE('',*,*,#253,.T.);
#335=ORIENTED_EDGE('',*,*,#254,.T.);
#336=ORIENTED_EDGE('',*,*,#255,.F.);
#337=ORIENTED_EDGE('',*,*,#256,.T.);
#338=ORIENTED_EDGE('',*,*,#257,.T.);
#339=ORIENTED_EDGE('',*,*,#258,.T.);
#340=ORIENTED_EDGE('',*,*,#259,.T.);
#341=ORIENTED_EDGE('',*,*,#260,.T.);
#342=ORIENTED_EDGE('',*,*,#261,.T.);
#343=ORIENTED_EDGE('',*,*,#258,.F.);
#344=ORIENTED_EDGE('',*,*,#262,.T.);
#345=ORIENTED_EDGE('',*,*,#263,.T.);
#346=ORIENTED_EDGE('',*,*,#264,.T.);
#347=ORIENTED_EDGE('',*,*,#260,.F.);
#348=ORIENTED_EDGE('',*,*,#265,.T.);
#349=ORIENTED_EDGE('',*,*,#249,.F.);
#350=ORIENTED_EDGE('',*,*,#266,.F.);
#351=ORIENTED_EDGE('',*,*,#265,.F.);
#352=ORIENTED_EDGE('',*,*,#267,.T.);
#353=ORIENTED_EDGE('',*,*,#246,.F.);
#354=ORIENTED_EDGE('',*,*,#267,.F.);
#355=ORIENTED_EDGE('',*,*,#262,.F.);
#356=ORIENTED_EDGE('',*,*,#268,.T.);
#357=ORIENTED_EDGE('',*,*,#244,.F.);
#358=ORIENTED_EDGE('',*,*,#268,.F.);
#359=ORIENTED_EDGE('',*,*,#257,.F.);
#360=ORIENTED_EDGE('',*,*,#269,.F.);
#361=ORIENTED_EDGE('',*,*,#270,.T.);
#362=ORIENTED_EDGE('',*,*,#271,.T.);
#363=ORIENTED_EDGE('',*,*,#272,.T.);
#364=ORIENTED_EDGE('',*,*,#273,.T.);
#365=ORIENTED_EDGE('',*,*,#274,.T.);
#366=ORIENTED_EDGE('',*,*,#275,.T.);
#367=ORIENTED_EDGE('',*,*,#272,.F.);
#368=ORIENTED_EDGE('',*,*,#276,.T.);
#369=ORIENTED_EDGE('',*,*,#277,.T.);
#370=ORIENTED_EDGE('',*,*,#278,.T.);
#371=ORIENTED_EDGE('',*,*,#274,.F.);
#372=ORIENTED_EDGE('',*,*,#279,.T.);
#373=ORIENTED_EDGE('',*,*,#279,.F.);
#374=ORIENTED_EDGE('',*,*,#276,.F.);
#375=ORIENTED_EDGE('',*,*,#271,.F.);
#376=ORIENTED_EDGE('',*,*,#280,.T.);
#377=ORIENTED_EDGE('',*,*,#281,.T.);
#378=ORIENTED_EDGE('',*,*,#282,.T.);
#379=ORIENTED_EDGE('',*,*,#283,.T.);
#380=ORIENTED_EDGE('',*,*,#284,.F.);
#381=ORIENTED_EDGE('',*,*,#270,.F.);
#382=ORIENTED_EDGE('',*,*,#285,.F.);
#383=ORIENTED_EDGE('',*,*,#286,.F.);
#384=ORIENTED_EDGE('',*,*,#287,.F.);
#385=ORIENTED_EDGE('',*,*,#288,.F.);
#386=ORIENTED_EDGE('',*,*,#251,.F.);
#387=ORIENTED_EDGE('',*,*,#241,.F.);
#388=ORIENTED_EDGE('',*,*,#269,.T.);
#389=ORIENTED_EDGE('',*,*,#256,.F.);
#390=ORIENTED_EDGE('',*,*,#289,.F.);
#391=ORIENTED_EDGE('',*,*,#290,.F.);
#392=ORIENTED_EDGE('',*,*,#280,.F.);
#393=ORIENTED_EDGE('',*,*,#273,.F.);
#394=ORIENTED_EDGE('',*,*,#291,.F.);
#395=ORIENTED_EDGE('',*,*,#292,.F.);
#396=ORIENTED_EDGE('',*,*,#285,.T.);
#397=ORIENTED_EDGE('',*,*,#286,.T.);
#398=ORIENTED_EDGE('',*,*,#292,.T.);
#399=ORIENTED_EDGE('',*,*,#293,.T.);
#400=ORIENTED_EDGE('',*,*,#294,.T.);
#401=ORIENTED_EDGE('',*,*,#295,.T.);
#402=ORIENTED_EDGE('',*,*,#296,.T.);
#403=ORIENTED_EDGE('',*,*,#293,.F.);
#404=ORIENTED_EDGE('',*,*,#297,.T.);
#405=ORIENTED_EDGE('',*,*,#298,.T.);
#406=ORIENTED_EDGE('',*,*,#299,.T.);
#407=ORIENTED_EDGE('',*,*,#295,.F.);
#408=ORIENTED_EDGE('',*,*,#300,.T.);
#409=ORIENTED_EDGE('',*,*,#275,.F.);
#410=ORIENTED_EDGE('',*,*,#301,.F.);
#411=ORIENTED_EDGE('',*,*,#297,.F.);
#412=ORIENTED_EDGE('',*,*,#291,.T.);
#413=ORIENTED_EDGE('',*,*,#302,.T.);
#414=ORIENTED_EDGE('',*,*,#303,.T.);
#415=ORIENTED_EDGE('',*,*,#304,.F.);
#416=ORIENTED_EDGE('',*,*,#283,.F.);
#417=ORIENTED_EDGE('',*,*,#278,.F.);
#418=ORIENTED_EDGE('',*,*,#305,.F.);
#419=ORIENTED_EDGE('',*,*,#300,.F.);
#420=ORIENTED_EDGE('',*,*,#301,.T.);
#421=ORIENTED_EDGE('',*,*,#306,.T.);
#422=ORIENTED_EDGE('',*,*,#307,.T.);
#423=ORIENTED_EDGE('',*,*,#308,.F.);
#424=ORIENTED_EDGE('',*,*,#254,.F.);
#425=ORIENTED_EDGE('',*,*,#309,.T.);
#426=ORIENTED_EDGE('',*,*,#310,.T.);
#427=ORIENTED_EDGE('',*,*,#302,.F.);
#428=ORIENTED_EDGE('',*,*,#282,.F.);
#429=ORIENTED_EDGE('',*,*,#311,.T.);
#430=ORIENTED_EDGE('',*,*,#312,.T.);
#431=ORIENTED_EDGE('',*,*,#306,.F.);
#432=ORIENTED_EDGE('',*,*,#253,.F.);
#433=ORIENTED_EDGE('',*,*,#264,.F.);
#434=ORIENTED_EDGE('',*,*,#313,.F.);
#435=ORIENTED_EDGE('',*,*,#303,.F.);
#436=ORIENTED_EDGE('',*,*,#310,.F.);
#437=ORIENTED_EDGE('',*,*,#314,.F.);
#438=ORIENTED_EDGE('',*,*,#289,.T.);
#439=ORIENTED_EDGE('',*,*,#259,.F.);
#440=ORIENTED_EDGE('',*,*,#261,.F.);
#441=ORIENTED_EDGE('',*,*,#290,.T.);
#442=ORIENTED_EDGE('',*,*,#314,.T.);
#443=ORIENTED_EDGE('',*,*,#309,.F.);
#444=ORIENTED_EDGE('',*,*,#281,.F.);
#445=ORIENTED_EDGE('',*,*,#299,.F.);
#446=ORIENTED_EDGE('',*,*,#315,.F.);
#447=ORIENTED_EDGE('',*,*,#307,.F.);
#448=ORIENTED_EDGE('',*,*,#312,.F.);
#449=ORIENTED_EDGE('',*,*,#316,.F.);
#450=ORIENTED_EDGE('',*,*,#287,.T.);
#451=ORIENTED_EDGE('',*,*,#294,.F.);
#452=ORIENTED_EDGE('',*,*,#296,.F.);
#453=ORIENTED_EDGE('',*,*,#288,.T.);
#454=ORIENTED_EDGE('',*,*,#316,.T.);
#455=ORIENTED_EDGE('',*,*,#311,.F.);
#456=ORIENTED_EDGE('',*,*,#252,.F.);
#457=ORIENTED_EDGE('',*,*,#277,.F.);
#458=ORIENTED_EDGE('',*,*,#284,.T.);
#459=ORIENTED_EDGE('',*,*,#304,.T.);
#460=ORIENTED_EDGE('',*,*,#313,.T.);
#461=ORIENTED_EDGE('',*,*,#263,.F.);
#462=ORIENTED_EDGE('',*,*,#266,.T.);
#463=ORIENTED_EDGE('',*,*,#248,.F.);
#464=ORIENTED_EDGE('',*,*,#255,.T.);
#465=ORIENTED_EDGE('',*,*,#308,.T.);
#466=ORIENTED_EDGE('',*,*,#315,.T.);
#467=ORIENTED_EDGE('',*,*,#298,.F.);
#468=ORIENTED_EDGE('',*,*,#305,.T.);
#469=B_SPLINE_SURFACE_WITH_KNOTS('',3,3,((#624,#625,#626,#627),(#628,#629,
#630,#631),(#632,#633,#634,#635),(#636,#637,#638,#639),(#640,#641,#642,
#643)),.UNSPECIFIED.,.F.,.F.,.F.,(4,1,4),(4,4),(0.,0.5,1.),(0.,32.94495),
 .UNSPECIFIED.);
#470=B_SPLINE_SURFACE_WITH_KNOTS('',3,3,((#664,#665,#666,#667,#668,#669,
#670,#671,#672,#673),(#674,#675,#676,#677,#678,#679,#680,#681,#682,#683),
(#684,#685,#686,#687,#688,#689,#690,#691,#692,#693),(#694,#695,#696,#697,
#698,#699,#700,#701,#702,#703),(#704,#705,#706,#707,#708,#709,#710,#711,
#712,#713)),.UNSPECIFIED.,.F.,.F.,.F.,(4,1,4),(4,1,1,1,1,1,1,4),(0.,0.5,
1.),(0.,4.47250331089872,8.94500662179744,13.4175099326962,17.8900132435949,
22.3625165544936,26.8350198653923,31.307523176291),.UNSPECIFIED.);
#471=B_SPLINE_SURFACE_WITH_KNOTS('',3,3,((#737,#738,#739,#740),(#741,#742,
#743,#744),(#745,#746,#747,#748),(#749,#750,#751,#752),(#753,#754,#755,
#756)),.UNSPECIFIED.,.F.,.F.,.F.,(4,1,4),(4,4),(0.,0.5,1.),(2.48854122914372E-15,
16.9545),.UNSPECIFIED.);
#472=B_SPLINE_SURFACE_WITH_KNOTS('',3,3,((#784,#785,#786,#787),(#788,#789,
#790,#791),(#792,#793,#794,#795),(#796,#797,#798,#799),(#800,#801,#802,
#803)),.UNSPECIFIED.,.F.,.F.,.F.,(4,1,4),(4,4),(0.,0.5,1.),(-1.20382623224631E-34,
32.94495),.UNSPECIFIED.);
#473=B_SPLINE_SURFACE_WITH_KNOTS('',3,3,((#824,#825,#826,#827,#828,#829,
#830,#831,#832,#833),(#834,#835,#836,#837,#838,#839,#840,#841,#842,#843),
(#844,#845,#846,#847,#848,#849,#850,#851,#852,#853),(#854,#855,#856,#857,
#858,#859,#860,#861,#862,#863),(#864,#865,#866,#867,#868,#869,#870,#871,
#872,#873)),.UNSPECIFIED.,.F.,.F.,.F.,(4,1,4),(4,1,1,1,1,1,1,4),(0.,0.5,
1.),(0.,5.30933798319762,10.6186759663952,15.9280139495929,21.2373519327905,
26.5466899159881,31.8560278991857,37.1653658823834),.UNSPECIFIED.);
#474=B_SPLINE_SURFACE_WITH_KNOTS('',3,3,((#897,#898,#899,#900),(#901,#902,
#903,#904),(#905,#906,#907,#908),(#909,#910,#911,#912),(#913,#914,#915,
#916)),.UNSPECIFIED.,.F.,.F.,.F.,(4,1,4),(4,4),(0.,0.5,1.),(0.,16.9545),
 .UNSPECIFIED.);
#475=B_SPLINE_SURFACE_WITH_KNOTS('',3,3,((#978,#979,#980,#981),(#982,#983,
#984,#985),(#986,#987,#988,#989),(#990,#991,#992,#993),(#994,#995,#996,
#997)),.UNSPECIFIED.,.F.,.F.,.F.,(4,1,4),(4,4),(0.,0.5,1.),(0.,32.94495),
 .UNSPECIFIED.);
#476=B_SPLINE_SURFACE_WITH_KNOTS('',3,3,((#1018,#1019,#1020,#1021,#1022,
#1023,#1024,#1025,#1026,#1027),(#1028,#1029,#1030,#1031,#1032,#1033,#1034,
#1035,#1036,#1037),(#1038,#1039,#1040,#1041,#1042,#1043,#1044,#1045,#1046,
#1047),(#1048,#1049,#1050,#1051,#1052,#1053,#1054,#1055,#1056,#1057),(#1058,
#1059,#1060,#1061,#1062,#1063,#1064,#1065,#1066,#1067)),.UNSPECIFIED.,.F.,
 .F.,.F.,(4,1,4),(4,1,1,1,1,1,1,4),(0.,0.5,1.),(0.,5.24177431655535,10.4835486331107,
15.725322949666,20.9670972662214,26.2088715827767,31.4506458993321,36.6924202158874),
 .UNSPECIFIED.);
#477=B_SPLINE_SURFACE_WITH_KNOTS('',3,3,((#1091,#1092,#1093,#1094),(#1095,
#1096,#1097,#1098),(#1099,#1100,#1101,#1102),(#1103,#1104,#1105,#1106),
(#1107,#1108,#1109,#1110)),.UNSPECIFIED.,.F.,.F.,.F.,(4,1,4),(4,4),(0.,
0.5,1.),(0.,16.9545),.UNSPECIFIED.);
#478=B_SPLINE_SURFACE_WITH_KNOTS('',3,3,((#1175,#1176,#1177,#1178),(#1179,
#1180,#1181,#1182),(#1183,#1184,#1185,#1186),(#1187,#1188,#1189,#1190),
(#1191,#1192,#1193,#1194)),.UNSPECIFIED.,.F.,.F.,.F.,(4,1,4),(4,4),(0.,
0.5,1.),(-1.77635683940025E-15,32.94495),.UNSPECIFIED.);
#479=B_SPLINE_SURFACE_WITH_KNOTS('',3,3,((#1201,#1202,#1203,#1204,#1205,
#1206,#1207,#1208,#1209,#1210),(#1211,#1212,#1213,#1214,#1215,#1216,#1217,
#1218,#1219,#1220),(#1221,#1222,#1223,#1224,#1225,#1226,#1227,#1228,#1229,
#1230),(#1231,#1232,#1233,#1234,#1235,#1236,#1237,#1238,#1239,#1240),(#1241,
#1242,#1243,#1244,#1245,#1246,#1247,#1248,#1249,#1250)),.UNSPECIFIED.,.F.,
 .F.,.F.,(4,1,4),(4,1,1,1,1,1,1,4),(0.,0.5,1.),(7.09437784127064E-15,4.54913918325251,
9.09827836650502,13.6474175497575,18.19655673301,22.7456959162625,27.294835099515,
31.8439742827676),.UNSPECIFIED.);
#480=B_SPLINE_SURFACE_WITH_KNOTS('',3,3,((#1274,#1275,#1276,#1277),(#1278,
#1279,#1280,#1281),(#1282,#1283,#1284,#1285),(#1286,#1287,#1288,#1289),
(#1290,#1291,#1292,#1293)),.UNSPECIFIED.,.F.,.F.,.F.,(4,1,4),(4,4),(0.,
0.5,1.),(6.53696535317473E-15,16.9545),.UNSPECIFIED.);
#481=ADVANCED_FACE('',(#89),#469,.T.);
#482=ADVANCED_FACE('',(#90),#470,.T.);
#483=ADVANCED_FACE('',(#91),#471,.T.);
#484=ADVANCED_FACE('',(#92),#79,.T.);
#485=ADVANCED_FACE('',(#93),#472,.T.);
#486=ADVANCED_FACE('',(#94),#473,.T.);
#487=ADVANCED_FACE('',(#95),#474,.T.);
#488=ADVANCED_FACE('',(#96),#25,.T.);
#489=ADVANCED_FACE('',(#97),#26,.T.);
#490=ADVANCED_FACE('',(#98),#27,.T.);
#491=ADVANCED_FACE('',(#99),#475,.F.);
#492=ADVANCED_FACE('',(#100),#476,.F.);
#493=ADVANCED_FACE('',(#101),#477,.F.);
#494=ADVANCED_FACE('',(#102),#80,.T.);
#495=ADVANCED_FACE('',(#103),#81,.F.);
#496=ADVANCED_FACE('',(#104),#28,.T.);
#497=ADVANCED_FACE('',(#105),#478,.F.);
#498=ADVANCED_FACE('',(#106),#479,.F.);
#499=ADVANCED_FACE('',(#107),#480,.F.);
#500=ADVANCED_FACE('',(#108),#29,.T.);
#501=ADVANCED_FACE('',(#109),#82,.T.);
#502=ADVANCED_FACE('',(#110),#30,.T.);
#503=ADVANCED_FACE('',(#111),#83,.T.);
#504=ADVANCED_FACE('',(#112),#15,.T.);
#505=ADVANCED_FACE('',(#113),#16,.F.);
#506=ADVANCED_FACE('',(#114),#84,.T.);
#507=ADVANCED_FACE('',(#115),#85,.T.);
#508=ADVANCED_FACE('',(#116),#86,.T.);
#509=ADVANCED_FACE('',(#117),#87,.T.);
#510=ADVANCED_FACE('',(#118),#88,.T.);
#511=CLOSED_SHELL('',(#481,#482,#483,#484,#485,#486,#487,#488,#489,#490,
#491,#492,#493,#494,#495,#496,#497,#498,#499,#500,#501,#502,#503,#504,#505,
#506,#507,#508,#509,#510));
#512=DERIVED_UNIT_ELEMENT(#514,1.);
#513=DERIVED_UNIT_ELEMENT(#1373,-3.);
#514=(
MASS_UNIT()
NAMED_UNIT(*)
SI_UNIT(.KILO.,.GRAM.)
);
#515=DERIVED_UNIT((#512,#513));
#516=MEASURE_REPRESENTATION_ITEM('density measure',
POSITIVE_RATIO_MEASURE(7850.),#515);
#517=PROPERTY_DEFINITION_REPRESENTATION(#522,#519);
#518=PROPERTY_DEFINITION_REPRESENTATION(#523,#520);
#519=REPRESENTATION('material name',(#521),#1370);
#520=REPRESENTATION('density',(#516),#1370);
#521=DESCRIPTIVE_REPRESENTATION_ITEM('Steel','Steel');
#522=PROPERTY_DEFINITION('material property','material name',#1380);
#523=PROPERTY_DEFINITION('material property','density of part',#1380);
#524=AXIS2_PLACEMENT_3D('',#623,#549,#550);
#525=AXIS2_PLACEMENT_3D('',#659,#551,#552);
#526=AXIS2_PLACEMENT_3D('',#716,#553,#554);
#527=AXIS2_PLACEMENT_3D('',#774,#555,#556);
#528=AXIS2_PLACEMENT_3D('',#780,#559,#560);
#529=AXIS2_PLACEMENT_3D('',#819,#563,#564);
#530=AXIS2_PLACEMENT_3D('',#876,#565,#566);
#531=AXIS2_PLACEMENT_3D('',#1013,#567,#568);
#532=AXIS2_PLACEMENT_3D('',#1070,#569,#570);
#533=AXIS2_PLACEMENT_3D('',#1128,#571,#572);
#534=AXIS2_PLACEMENT_3D('',#1134,#575,#576);
#535=AXIS2_PLACEMENT_3D('',#1138,#579,#580);
#536=AXIS2_PLACEMENT_3D('',#1196,#585,#586);
#537=AXIS2_PLACEMENT_3D('',#1253,#587,#588);
#538=AXIS2_PLACEMENT_3D('',#1327,#589,#590);
#539=AXIS2_PLACEMENT_3D('',#1345,#594,#595);
#540=AXIS2_PLACEMENT_3D('',#1351,#599,#600);
#541=AXIS2_PLACEMENT_3D('',#1354,#602,#603);
#542=AXIS2_PLACEMENT_3D('',#1355,#604,#605);
#543=AXIS2_PLACEMENT_3D('',#1358,#607,#608);
#544=AXIS2_PLACEMENT_3D('',#1359,#609,#610);
#545=AXIS2_PLACEMENT_3D('',#1362,#613,#614);
#546=AXIS2_PLACEMENT_3D('',#1363,#615,#616);
#547=AXIS2_PLACEMENT_3D('',#1366,#619,#620);
#548=AXIS2_PLACEMENT_3D('',#1367,#621,#622);
#549=DIRECTION('axis',(0.,0.,1.));
#550=DIRECTION('refdir',(1.,0.,0.));
#551=DIRECTION('center_axis',(0.,1.,0.));
#552=DIRECTION('ref_axis',(0.,0.,1.));
#553=DIRECTION('center_axis',(-1.,7.12199207969439E-14,0.));
#554=DIRECTION('ref_axis',(0.,0.,1.));
#555=DIRECTION('center_axis',(-2.84873755899148E-14,0.,-1.));
#556=DIRECTION('ref_axis',(-1.,0.,2.84873755899148E-14));
#557=DIRECTION('',(-1.,0.,2.84873755899148E-14));
#558=DIRECTION('',(0.,1.,0.));
#559=DIRECTION('center_axis',(0.,0.,1.));
#560=DIRECTION('ref_axis',(1.,0.,0.));
#561=DIRECTION('',(-1.,0.,0.));
#562=DIRECTION('',(-6.12323399573677E-17,-1.,2.84873755899148E-14));
#563=DIRECTION('center_axis',(0.,1.,0.));
#564=DIRECTION('ref_axis',(-0.997698080546778,0.,0.0678125362545568));
#565=DIRECTION('center_axis',(-1.,7.12182121640066E-14,0.));
#566=DIRECTION('ref_axis',(-7.10542735760028E-14,-0.997698080546781,0.0678125362545104));
#567=DIRECTION('center_axis',(0.,-1.,0.));
#568=DIRECTION('ref_axis',(0.,0.,1.));
#569=DIRECTION('center_axis',(1.,-7.12163111162521E-14,0.));
#570=DIRECTION('ref_axis',(0.,0.,1.));
#571=DIRECTION('center_axis',(9.0920706075991E-16,0.,1.));
#572=DIRECTION('ref_axis',(1.,0.,-9.0920706075991E-16));
#573=DIRECTION('',(1.,0.,-9.0920706075991E-16));
#574=DIRECTION('',(0.,1.,0.));
#575=DIRECTION('center_axis',(0.,0.,1.));
#576=DIRECTION('ref_axis',(1.,-2.82923567752277E-16,0.));
#577=DIRECTION('',(-1.,0.,0.));
#578=DIRECTION('',(6.12323399573677E-17,1.,-9.0920706075991E-16));
#579=DIRECTION('center_axis',(0.,1.,0.));
#580=DIRECTION('ref_axis',(1.,0.,0.));
#581=DIRECTION('',(1.,0.,1.53477787239243E-13));
#582=DIRECTION('',(0.,0.,1.));
#583=DIRECTION('',(-1.,0.,6.47630097698E-16));
#584=DIRECTION('',(0.,0.,-1.));
#585=DIRECTION('center_axis',(0.,-1.,0.));
#586=DIRECTION('ref_axis',(0.997700904351596,0.,0.06777097797736));
#587=DIRECTION('center_axis',(1.,-1.52089049646259E-13,1.4210854715202E-13));
#588=DIRECTION('ref_axis',(1.4210854715202E-13,0.99770090435044,0.0677709779943721));
#589=DIRECTION('center_axis',(0.,1.,0.));
#590=DIRECTION('ref_axis',(0.,0.,-1.));
#591=DIRECTION('',(0.,0.,-1.));
#592=DIRECTION('',(-1.,0.,0.));
#593=DIRECTION('',(0.,0.,-1.));
#594=DIRECTION('center_axis',(0.,-1.,0.));
#595=DIRECTION('ref_axis',(0.,0.,1.));
#596=DIRECTION('',(0.,0.,1.));
#597=DIRECTION('',(-1.,0.,0.));
#598=DIRECTION('',(0.,0.,1.));
#599=DIRECTION('center_axis',(0.,0.,1.));
#600=DIRECTION('ref_axis',(1.,0.,0.));
#601=DIRECTION('',(0.,0.,-1.));
#602=DIRECTION('center_axis',(0.,0.,1.));
#603=DIRECTION('ref_axis',(1.,-2.82923567752277E-16,0.));
#604=DIRECTION('center_axis',(0.,0.,1.));
#605=DIRECTION('ref_axis',(1.,0.,0.));
#606=DIRECTION('',(0.,0.,1.));
#607=DIRECTION('center_axis',(0.,0.,1.));
#608=DIRECTION('ref_axis',(1.,0.,0.));
#609=DIRECTION('center_axis',(-6.47630097698E-16,0.,-1.));
#610=DIRECTION('ref_axis',(-1.,0.,6.47630097698E-16));
#611=DIRECTION('',(-6.12323399573677E-17,-1.,6.47630097698E-16));
#612=DIRECTION('',(0.,1.,0.));
#613=DIRECTION('center_axis',(1.,0.,0.));
#614=DIRECTION('ref_axis',(0.,0.,-1.));
#615=DIRECTION('center_axis',(-1.53477787239243E-13,0.,1.));
#616=DIRECTION('ref_axis',(1.,0.,1.53477787239243E-13));
#617=DIRECTION('',(6.12323399573677E-17,1.,1.53477787239243E-13));
#618=DIRECTION('',(0.,1.,0.));
#619=DIRECTION('center_axis',(-1.,0.,0.));
#620=DIRECTION('ref_axis',(0.,0.,1.));
#621=DIRECTION('center_axis',(-1.,6.12323399573677E-17,0.));
#622=DIRECTION('ref_axis',(6.12323399573677E-17,1.,0.));
#623=CARTESIAN_POINT('',(0.,0.,0.));
#624=CARTESIAN_POINT('Ctrl Pts',(369.360964386431,0.,-0.465918110614917));
#625=CARTESIAN_POINT('Ctrl Pts',(369.360964386431,109.8165,-0.465918110614917));
#626=CARTESIAN_POINT('Ctrl Pts',(369.360964386431,219.633,-0.465918110614917));
#627=CARTESIAN_POINT('Ctrl Pts',(369.360964386431,329.4495,-0.465918110614917));
#628=CARTESIAN_POINT('Ctrl Pts',(369.352429260847,0.,-0.340994371464966));
#629=CARTESIAN_POINT('Ctrl Pts',(369.352429260847,109.8165,-0.340994371464966));
#630=CARTESIAN_POINT('Ctrl Pts',(369.352429260847,219.633,-0.340994371464966));
#631=CARTESIAN_POINT('Ctrl Pts',(369.352429260847,329.4495,-0.340994371464966));
#632=CARTESIAN_POINT('Ctrl Pts',(369.236788079065,0.,-0.098867966434782));
#633=CARTESIAN_POINT('Ctrl Pts',(369.236788079065,109.8165,-0.098867966434782));
#634=CARTESIAN_POINT('Ctrl Pts',(369.236788079065,219.633,-0.098867966434782));
#635=CARTESIAN_POINT('Ctrl Pts',(369.236788079065,329.4495,-0.098867966434782));
#636=CARTESIAN_POINT('Ctrl Pts',(368.987342285054,0.,-4.85082987220566E-14));
#637=CARTESIAN_POINT('Ctrl Pts',(368.987342285054,109.8165,-4.85082987220566E-14));
#638=CARTESIAN_POINT('Ctrl Pts',(368.987342285054,219.633,-4.85082987220566E-14));
#639=CARTESIAN_POINT('Ctrl Pts',(368.987342285054,329.4495,-4.85082987220566E-14));
#640=CARTESIAN_POINT('Ctrl Pts',(368.862127314016,0.,-4.85028683883115E-14));
#641=CARTESIAN_POINT('Ctrl Pts',(368.862127314016,109.8165,-4.85028683883115E-14));
#642=CARTESIAN_POINT('Ctrl Pts',(368.862127314016,219.633,-4.85028683883115E-14));
#643=CARTESIAN_POINT('Ctrl Pts',(368.862127314016,329.4495,-4.85028683883115E-14));
#644=CARTESIAN_POINT('',(369.360964386431,0.,-0.46591811061492));
#645=CARTESIAN_POINT('',(368.862127314016,0.,-1.49069360153972E-14));
#646=CARTESIAN_POINT('Ctrl Pts',(369.360964386431,0.,-0.465918110614917));
#647=CARTESIAN_POINT('Ctrl Pts',(369.352429260847,0.,-0.340994371464966));
#648=CARTESIAN_POINT('Ctrl Pts',(369.294608669956,0.,-0.219931168949874));
#649=CARTESIAN_POINT('Ctrl Pts',(369.203336926007,0.,-0.134682576083645));
#650=CARTESIAN_POINT('Ctrl Pts',(369.112065182059,0.,-0.0494339832174152));
#651=CARTESIAN_POINT('Ctrl Pts',(368.987342285054,0.,-4.84970859767249E-14));
#652=CARTESIAN_POINT('Ctrl Pts',(368.862127314016,0.,-4.84855211535518E-14));
#653=CARTESIAN_POINT('',(368.862127314016,329.4495,-1.49069360153972E-14));
#654=CARTESIAN_POINT('Ctrl Pts',(368.862127314016,0.,-4.85028683883115E-14));
#655=CARTESIAN_POINT('Ctrl Pts',(368.862127314016,109.8165,-4.85028683883115E-14));
#656=CARTESIAN_POINT('Ctrl Pts',(368.862127314016,219.633,-4.85028683883115E-14));
#657=CARTESIAN_POINT('Ctrl Pts',(368.862127314016,329.4495,-4.85028683883115E-14));
#658=CARTESIAN_POINT('',(369.360964386431,329.4495,-0.465918110614917));
#659=CARTESIAN_POINT('Origin',(368.862127314016,329.4495,-0.500000000000015));
#660=CARTESIAN_POINT('Ctrl Pts',(369.360964386431,329.4495,-0.465918110614917));
#661=CARTESIAN_POINT('Ctrl Pts',(369.360964386431,219.633,-0.465918110614917));
#662=CARTESIAN_POINT('Ctrl Pts',(369.360964386431,109.8165,-0.465918110614917));
#663=CARTESIAN_POINT('Ctrl Pts',(369.360964386431,0.,-0.465918110614917));
#664=CARTESIAN_POINT('Ctrl Pts',(369.360964386431,329.4495,-0.465918110614917));
#665=CARTESIAN_POINT('Ctrl Pts',(369.360964386431,344.395155939221,-0.465918110614917));
#666=CARTESIAN_POINT('Ctrl Pts',(365.99385896417,374.289767636193,-0.465918110614821));
#667=CARTESIAN_POINT('Ctrl Pts',(351.090251724006,416.876841253769,-0.465918110614399));
#668=CARTESIAN_POINT('Ctrl Pts',(327.083794059325,455.085767506407,-0.465918110613718));
#669=CARTESIAN_POINT('Ctrl Pts',(295.177417702688,486.988912446157,-0.465918110612814));
#670=CARTESIAN_POINT('Ctrl Pts',(256.970016746895,510.997951271925,-0.46591811061173));
#671=CARTESIAN_POINT('Ctrl Pts',(214.381638589405,525.897697037041,-0.465918110610523));
#672=CARTESIAN_POINT('Ctrl Pts',(184.490655939221,529.265464386431,-0.465918110609676));
#673=CARTESIAN_POINT('Ctrl Pts',(169.545,529.265464386431,-0.465918110609252));
#674=CARTESIAN_POINT('Ctrl Pts',(369.352429260847,329.4495,-0.340994371464947));
#675=CARTESIAN_POINT('Ctrl Pts',(369.352429260847,344.394582108811,-0.340994371464945));
#676=CARTESIAN_POINT('Ctrl Pts',(365.985492312767,374.287795879493,-0.340994371464863));
#677=CARTESIAN_POINT('Ctrl Pts',(351.082488240871,416.873129360959,-0.340994371464433));
#678=CARTESIAN_POINT('Ctrl Pts',(327.077084907386,455.080399000596,-0.340994371463764));
#679=CARTESIAN_POINT('Ctrl Pts',(295.172041462143,486.982185345515,-0.340994371462863));
#680=CARTESIAN_POINT('Ctrl Pts',(256.966304295919,510.990208398553,-0.340994371461776));
#681=CARTESIAN_POINT('Ctrl Pts',(214.379685314216,525.889309042155,-0.340994371460539));
#682=CARTESIAN_POINT('Ctrl Pts',(184.490082108811,529.256929260846,-0.340994371459723));
#683=CARTESIAN_POINT('Ctrl Pts',(169.545,529.256929260846,-0.340994371459299));
#684=CARTESIAN_POINT('Ctrl Pts',(369.236786977105,329.4495,-0.0988691462520625));
#685=CARTESIAN_POINT('Ctrl Pts',(369.236786977105,344.385847526871,-0.0988691462520567));
#686=CARTESIAN_POINT('Ctrl Pts',(365.871766323012,374.261918987323,-0.098869146252002));
#687=CARTESIAN_POINT('Ctrl Pts',(350.977431575174,416.822501661574,-0.098869146251556));
#688=CARTESIAN_POINT('Ctrl Pts',(326.985883852081,455.007690346413,-0.0988691462509085));
#689=CARTESIAN_POINT('Ctrl Pts',(295.099345418682,486.891007489359,-0.0988691462500131));
#690=CARTESIAN_POINT('Ctrl Pts',(256.91567880599,510.885122612051,-0.0988691462489184));
#691=CARTESIAN_POINT('Ctrl Pts',(214.353786434008,525.775611526501,-0.0988691462476255));
#692=CARTESIAN_POINT('Ctrl Pts',(184.481347526871,529.141286977105,-0.098869146246869));
#693=CARTESIAN_POINT('Ctrl Pts',(169.545,529.141286977105,-0.0988691462464446));
#694=CARTESIAN_POINT('Ctrl Pts',(368.987342285053,329.4495,2.24700695144203E-14));
#695=CARTESIAN_POINT('Ctrl Pts',(368.987342285053,344.367224345078,2.9851597533545E-14));
#696=CARTESIAN_POINT('Ctrl Pts',(365.626538223696,374.205911454816,7.38864149107818E-14));
#697=CARTESIAN_POINT('Ctrl Pts',(350.750790828259,416.713371874885,5.25240387116278E-13));
#698=CARTESIAN_POINT('Ctrl Pts',(326.789227564951,454.850848475085,1.16660551617284E-12));
#699=CARTESIAN_POINT('Ctrl Pts',(294.942504125667,486.694340838166,2.0679014486946E-12));
#700=CARTESIAN_POINT('Ctrl Pts',(256.806551569276,510.658488974489,3.15840631023337E-12));
#701=CARTESIAN_POINT('Ctrl Pts',(214.297793240322,525.53037281526,4.47137308423462E-12));
#702=CARTESIAN_POINT('Ctrl Pts',(184.462724345078,528.891842285053,5.20384028823089E-12));
#703=CARTESIAN_POINT('Ctrl Pts',(169.545,528.891842285053,5.6284783598206E-12));
#704=CARTESIAN_POINT('Ctrl Pts',(368.862127314016,329.4495,2.24820162486594E-14));
#705=CARTESIAN_POINT('Ctrl Pts',(368.862127314016,344.357844369662,2.98482000100152E-14));
#706=CARTESIAN_POINT('Ctrl Pts',(365.503427811755,374.177824689579,7.42783007609493E-14));
#707=CARTESIAN_POINT('Ctrl Pts',(350.637027167305,416.658580420136,5.24725248730219E-13));
#708=CARTESIAN_POINT('Ctrl Pts',(326.690501205765,454.772118754344,1.16812093826278E-12));
#709=CARTESIAN_POINT('Ctrl Pts',(294.863778561593,486.595618048805,2.07528114276162E-12));
#710=CARTESIAN_POINT('Ctrl Pts',(256.751761716354,510.544718727609,3.16036656154891E-12));
#711=CARTESIAN_POINT('Ctrl Pts',(214.269704702643,525.407267537114,4.47091930177432E-12));
#712=CARTESIAN_POINT('Ctrl Pts',(184.453344369662,528.766627314015,5.20385018461607E-12));
#713=CARTESIAN_POINT('Ctrl Pts',(169.545,528.766627314015,5.62848379015435E-12));
#714=CARTESIAN_POINT('',(169.545,528.766627314015,5.66311493128184E-12));
#715=CARTESIAN_POINT('',(169.545,529.265464386431,-0.465918110610796));
#716=CARTESIAN_POINT('Origin',(169.545,528.766627314015,-0.499999999994337));
#717=CARTESIAN_POINT('Ctrl Pts',(169.545,529.265464386431,-0.465918110609252));
#718=CARTESIAN_POINT('Ctrl Pts',(184.490655939221,529.265464386431,-0.465918110609676));
#719=CARTESIAN_POINT('Ctrl Pts',(214.381638589405,525.897697037041,-0.465918110610523));
#720=CARTESIAN_POINT('Ctrl Pts',(256.970016746895,510.997951271925,-0.46591811061173));
#721=CARTESIAN_POINT('Ctrl Pts',(295.177417702688,486.988912446157,-0.465918110612814));
#722=CARTESIAN_POINT('Ctrl Pts',(327.083794059325,455.085767506407,-0.465918110613718));
#723=CARTESIAN_POINT('Ctrl Pts',(351.090251724006,416.876841253769,-0.465918110614399));
#724=CARTESIAN_POINT('Ctrl Pts',(365.99385896417,374.289767636193,-0.465918110614821));
#725=CARTESIAN_POINT('Ctrl Pts',(369.360964386431,344.395155939221,-0.465918110614917));
#726=CARTESIAN_POINT('Ctrl Pts',(369.360964386431,329.4495,-0.465918110614917));
#727=CARTESIAN_POINT('Ctrl Pts',(368.862127314016,329.4495,2.24820162486594E-14));
#728=CARTESIAN_POINT('Ctrl Pts',(368.862127314016,344.357844369662,2.98482000100152E-14));
#729=CARTESIAN_POINT('Ctrl Pts',(365.503427811755,374.177824689579,7.42783007609493E-14));
#730=CARTESIAN_POINT('Ctrl Pts',(350.637027167305,416.658580420136,5.24725248730219E-13));
#731=CARTESIAN_POINT('Ctrl Pts',(326.690501205765,454.772118754344,1.16812093826278E-12));
#732=CARTESIAN_POINT('Ctrl Pts',(294.863778561593,486.595618048805,2.07528114276162E-12));
#733=CARTESIAN_POINT('Ctrl Pts',(256.751761716354,510.544718727609,3.16036656154891E-12));
#734=CARTESIAN_POINT('Ctrl Pts',(214.269704702643,525.407267537114,4.47091930177432E-12));
#735=CARTESIAN_POINT('Ctrl Pts',(184.453344369662,528.766627314015,5.20385018461607E-12));
#736=CARTESIAN_POINT('Ctrl Pts',(169.545,528.766627314015,5.62848379015435E-12));
#737=CARTESIAN_POINT('Ctrl Pts',(169.545,529.265464386431,-0.465918110609249));
#738=CARTESIAN_POINT('Ctrl Pts',(113.03,529.265464386431,-0.465918110607642));
#739=CARTESIAN_POINT('Ctrl Pts',(56.515,529.265464386431,-0.465918110606036));
#740=CARTESIAN_POINT('Ctrl Pts',(-2.66453525910038E-14,529.26546438643,
-0.465918110604429));
#741=CARTESIAN_POINT('Ctrl Pts',(169.545,529.256929260846,-0.340994371459295));
#742=CARTESIAN_POINT('Ctrl Pts',(113.03,529.256929260846,-0.340994371457688));
#743=CARTESIAN_POINT('Ctrl Pts',(56.5150000000001,529.256929260846,-0.340994371456081));
#744=CARTESIAN_POINT('Ctrl Pts',(-2.3069990908123E-14,529.256929260846,
-0.340994371454474));
#745=CARTESIAN_POINT('Ctrl Pts',(169.545,529.141288079064,-0.0988679664291047));
#746=CARTESIAN_POINT('Ctrl Pts',(113.03,529.141288079064,-0.0988679664274958));
#747=CARTESIAN_POINT('Ctrl Pts',(56.5149999999998,529.141288079064,-0.0988679664258872));
#748=CARTESIAN_POINT('Ctrl Pts',(-1.59473686971146E-14,529.141288079064,
-0.0988679664242783));
#749=CARTESIAN_POINT('Ctrl Pts',(169.545,528.891842285053,5.63200959324435E-12));
#750=CARTESIAN_POINT('Ctrl Pts',(113.03,528.891842285053,7.24199109121376E-12));
#751=CARTESIAN_POINT('Ctrl Pts',(56.5150000000001,528.891842285053,8.85137250731729E-12));
#752=CARTESIAN_POINT('Ctrl Pts',(-1.26453749588225E-14,528.891842285053,
1.04613540052867E-11));
#753=CARTESIAN_POINT('Ctrl Pts',(169.545,528.766627314015,5.63202262604534E-12));
#754=CARTESIAN_POINT('Ctrl Pts',(113.03,528.766627314015,7.24198665750937E-12));
#755=CARTESIAN_POINT('Ctrl Pts',(56.515,528.766627314015,8.85138997382266E-12));
#756=CARTESIAN_POINT('Ctrl Pts',(-1.24016647960474E-14,528.766627314015,
1.04613540052867E-11));
#757=CARTESIAN_POINT('',(-2.66596657273377E-14,528.766627314015,1.04930070256739E-11));
#758=CARTESIAN_POINT('',(4.44089209850063E-15,529.26546438643,-0.465918110604427));
#759=CARTESIAN_POINT('Ctrl Pts',(4.00279978072513E-14,528.766627314015,
1.04613540052867E-11));
#760=CARTESIAN_POINT('Ctrl Pts',(3.97842876444762E-14,528.891842285053,
1.04613597876983E-11));
#761=CARTESIAN_POINT('Ctrl Pts',(3.81332907753301E-14,529.016565182058,
-0.0494339832069085));
#762=CARTESIAN_POINT('Ctrl Pts',(3.5527136788005E-14,529.107836926006,-0.134682576073142));
#763=CARTESIAN_POINT('Ctrl Pts',(7.13667278838497E-15,529.199108669955,
-0.219931168939376));
#764=CARTESIAN_POINT('Ctrl Pts',(3.57536168288079E-15,529.256929260846,
-0.340994371454474));
#765=CARTESIAN_POINT('Ctrl Pts',(0.,529.26546438643,-0.465918110604429));
#766=CARTESIAN_POINT('Ctrl Pts',(-2.66453525910038E-14,529.26546438643,
-0.465918110604429));
#767=CARTESIAN_POINT('Ctrl Pts',(56.515,529.265464386431,-0.465918110606036));
#768=CARTESIAN_POINT('Ctrl Pts',(113.03,529.265464386431,-0.465918110607642));
#769=CARTESIAN_POINT('Ctrl Pts',(169.545,529.265464386431,-0.465918110609249));
#770=CARTESIAN_POINT('Ctrl Pts',(169.545,528.766627314015,5.63202262604534E-12));
#771=CARTESIAN_POINT('Ctrl Pts',(113.03,528.766627314015,7.24198665750937E-12));
#772=CARTESIAN_POINT('Ctrl Pts',(56.515,528.766627314015,8.85138997382266E-12));
#773=CARTESIAN_POINT('Ctrl Pts',(-1.24016647960474E-14,528.766627314015,
1.04613540052867E-11));
#774=CARTESIAN_POINT('Origin',(369.329629829633,0.,-2.82248557670054E-14));
#775=CARTESIAN_POINT('',(354.329629829633,0.,3.99085778081712E-13));
#776=CARTESIAN_POINT('',(369.329629829633,0.,-2.82248557670094E-14));
#777=CARTESIAN_POINT('',(354.329629829633,329.4495,3.99085778081712E-13));
#778=CARTESIAN_POINT('',(354.329629829633,0.,3.99085778081712E-13));
#779=CARTESIAN_POINT('',(169.545,514.234129829633,3.99085778081712E-13));
#780=CARTESIAN_POINT('Origin',(169.545,329.4495,3.99085778081712E-13));
#781=CARTESIAN_POINT('',(0.,514.234129829633,3.99085778081712E-13));
#782=CARTESIAN_POINT('',(169.545,514.234129829633,3.99085778081712E-13));
#783=CARTESIAN_POINT('',(0.,529.234129829633,-2.82248557670094E-14));
#784=CARTESIAN_POINT('Ctrl Pts',(406.155667715189,0.,-5.6468718589997E-13));
#785=CARTESIAN_POINT('Ctrl Pts',(406.155667715189,109.8165,-5.6468718589997E-13));
#786=CARTESIAN_POINT('Ctrl Pts',(406.155667715189,219.633,-5.6468718589997E-13));
#787=CARTESIAN_POINT('Ctrl Pts',(406.155667715189,329.4495,-5.6468718589997E-13));
#788=CARTESIAN_POINT('Ctrl Pts',(406.030423406057,0.,-5.6468718589997E-13));
#789=CARTESIAN_POINT('Ctrl Pts',(406.030423406057,109.8165,-5.6468718589997E-13));
#790=CARTESIAN_POINT('Ctrl Pts',(406.030423406057,219.633,-5.6468718589997E-13));
#791=CARTESIAN_POINT('Ctrl Pts',(406.030423406057,329.4495,-5.6468718589997E-13));
#792=CARTESIAN_POINT('Ctrl Pts',(405.780920653344,0.,-0.0989171289748248));
#793=CARTESIAN_POINT('Ctrl Pts',(405.780920653344,109.8165,-0.0989171289748248));
#794=CARTESIAN_POINT('Ctrl Pts',(405.780920653344,219.633,-0.0989171289748248));
#795=CARTESIAN_POINT('Ctrl Pts',(405.780920653344,329.4495,-0.0989171289748248));
#796=CARTESIAN_POINT('Ctrl Pts',(405.66531180917,0.,-0.341137725052895));
#797=CARTESIAN_POINT('Ctrl Pts',(405.66531180917,109.8165,-0.341137725052895));
#798=CARTESIAN_POINT('Ctrl Pts',(405.66531180917,219.633,-0.341137725052895));
#799=CARTESIAN_POINT('Ctrl Pts',(405.66531180917,329.4495,-0.341137725052895));
#800=CARTESIAN_POINT('Ctrl Pts',(405.656818674916,0.,-0.466093731873295));
#801=CARTESIAN_POINT('Ctrl Pts',(405.656818674916,109.8165,-0.466093731873295));
#802=CARTESIAN_POINT('Ctrl Pts',(405.656818674916,219.633,-0.466093731873295));
#803=CARTESIAN_POINT('Ctrl Pts',(405.656818674916,329.4495,-0.466093731873295));
#804=CARTESIAN_POINT('',(406.155667715189,0.,-5.64721850209016E-13));
#805=CARTESIAN_POINT('',(405.656818674916,0.,-0.466093731873297));
#806=CARTESIAN_POINT('Ctrl Pts',(406.155667715189,1.20382623224631E-33,
-5.6468718589997E-13));
#807=CARTESIAN_POINT('Ctrl Pts',(406.030423406057,1.20382623224632E-33,
-5.6468718589997E-13));
#808=CARTESIAN_POINT('Ctrl Pts',(405.905672029701,1.20382623224631E-33,
-0.0494585644876947));
#809=CARTESIAN_POINT('Ctrl Pts',(405.814394130479,1.20382623224631E-33,
-0.134742995750777));
#810=CARTESIAN_POINT('Ctrl Pts',(405.723116231257,1.20382623224631E-33,
-0.22002742701386));
#811=CARTESIAN_POINT('Ctrl Pts',(405.66531180917,1.20382623224631E-33,-0.341137725052895));
#812=CARTESIAN_POINT('Ctrl Pts',(405.656818674916,1.20382623224631E-33,
-0.466093731873295));
#813=CARTESIAN_POINT('',(405.656818674916,329.4495,-0.466093731873297));
#814=CARTESIAN_POINT('Ctrl Pts',(405.656818674916,0.,-0.466093731873295));
#815=CARTESIAN_POINT('Ctrl Pts',(405.656818674916,109.8165,-0.466093731873295));
#816=CARTESIAN_POINT('Ctrl Pts',(405.656818674916,219.633,-0.466093731873295));
#817=CARTESIAN_POINT('Ctrl Pts',(405.656818674916,329.4495,-0.466093731873295));
#818=CARTESIAN_POINT('',(406.155667715189,329.4495,-5.64721850209016E-13));
#819=CARTESIAN_POINT('Origin',(406.155667715189,329.4495,-0.500000000000575));
#820=CARTESIAN_POINT('Ctrl Pts',(406.155667715189,329.4495,-5.6468718589997E-13));
#821=CARTESIAN_POINT('Ctrl Pts',(406.155667715189,219.633,-5.6468718589997E-13));
#822=CARTESIAN_POINT('Ctrl Pts',(406.155667715189,109.8165,-5.6468718589997E-13));
#823=CARTESIAN_POINT('Ctrl Pts',(406.155667715189,0.,-5.6468718589997E-13));
#824=CARTESIAN_POINT('Ctrl Pts',(406.155667715189,329.4495,-5.6468718589997E-13));
#825=CARTESIAN_POINT('Ctrl Pts',(406.155667715189,347.147293277325,-5.6468718589997E-13));
#826=CARTESIAN_POINT('Ctrl Pts',(402.167351697652,382.545991501331,-5.6215775812284E-13));
#827=CARTESIAN_POINT('Ctrl Pts',(384.522171852724,432.977156929411,-5.50712403742498E-13));
#828=CARTESIAN_POINT('Ctrl Pts',(356.09176703292,478.219600747862,-5.32309225001222E-13));
#829=CARTESIAN_POINT('Ctrl Pts',(318.312886040441,516.000212451824,-5.07847031630273E-13));
#830=CARTESIAN_POINT('Ctrl Pts',(273.067907115755,544.427628532951,-4.78494741599843E-13));
#831=CARTESIAN_POINT('Ctrl Pts',(222.638361817528,562.072796300377,-4.45869842112818E-13));
#832=CARTESIAN_POINT('Ctrl Pts',(187.242793277325,566.060167715189,-4.22938032090932E-13));
#833=CARTESIAN_POINT('Ctrl Pts',(169.545,566.060167715189,-4.11476408501699E-13));
#834=CARTESIAN_POINT('Ctrl Pts',(406.030423406057,329.4495,-5.6468718589997E-13));
#835=CARTESIAN_POINT('Ctrl Pts',(406.030423406057,347.137911089768,-5.64687342692067E-13));
#836=CARTESIAN_POINT('Ctrl Pts',(402.044217807449,382.517894514056,-5.621582548946E-13));
#837=CARTESIAN_POINT('Ctrl Pts',(384.408377009875,432.922352187811,-5.50711274840396E-13));
#838=CARTESIAN_POINT('Ctrl Pts',(355.993021793416,478.140855129442,-5.3230955128128E-13));
#839=CARTESIAN_POINT('Ctrl Pts',(318.234141403435,515.901462112935,-5.07847209303383E-13));
#840=CARTESIAN_POINT('Ctrl Pts',(273.013103754597,544.313836414406,-4.78494466472946E-13));
#841=CARTESIAN_POINT('Ctrl Pts',(222.610268127927,561.949659696058,-4.45870191278436E-13));
#842=CARTESIAN_POINT('Ctrl Pts',(187.233411089768,565.934923406057,-4.22938009502141E-13));
#843=CARTESIAN_POINT('Ctrl Pts',(169.545,565.934923406057,-4.11476408501699E-13));
#844=CARTESIAN_POINT('Ctrl Pts',(405.780921821152,329.4495,-0.0989183788520043));
#845=CARTESIAN_POINT('Ctrl Pts',(405.780921821152,347.119283649122,-0.0989183788520043));
#846=CARTESIAN_POINT('Ctrl Pts',(401.798923529048,382.461884920678,-0.0989183788520017));
#847=CARTESIAN_POINT('Ctrl Pts',(384.181691704776,432.813195811346,-0.0989183788519907));
#848=CARTESIAN_POINT('Ctrl Pts',(355.796314288321,477.983974122979,-0.0989183788519725));
#849=CARTESIAN_POINT('Ctrl Pts',(318.077263194408,515.704757735888,-0.098918378851948));
#850=CARTESIAN_POINT('Ctrl Pts',(272.903955131129,544.087142280206,-0.0989183788519187));
#851=CARTESIAN_POINT('Ctrl Pts',(222.554257862386,561.704369781119,-0.0989183788518865));
#852=CARTESIAN_POINT('Ctrl Pts',(187.214783649122,565.685421821152,-0.0989183788518636));
#853=CARTESIAN_POINT('Ctrl Pts',(169.545,565.685421821152,-0.0989183788518522));
#854=CARTESIAN_POINT('Ctrl Pts',(405.665311809169,329.4495,-0.34113772505289));
#855=CARTESIAN_POINT('Ctrl Pts',(405.665311809169,347.110551434478,-0.34113772505289));
#856=CARTESIAN_POINT('Ctrl Pts',(401.685258062916,382.435991459047,-0.341137725052887));
#857=CARTESIAN_POINT('Ctrl Pts',(384.076641788567,432.762582729617,-0.341137725052878));
#858=CARTESIAN_POINT('Ctrl Pts',(355.705159491335,477.911297725829,-0.341137725052859));
#859=CARTESIAN_POINT('Ctrl Pts',(318.004586743864,515.613583100041,-0.341137725052835));
#860=CARTESIAN_POINT('Ctrl Pts',(272.853337625897,543.982111114728,-0.341137725052805));
#861=CARTESIAN_POINT('Ctrl Pts',(222.528375691903,561.590690682551,-0.341137725052775));
#862=CARTESIAN_POINT('Ctrl Pts',(187.206051434478,565.56981180917,-0.341137725052752));
#863=CARTESIAN_POINT('Ctrl Pts',(169.545,565.56981180917,-0.34113772505274));
#864=CARTESIAN_POINT('Ctrl Pts',(405.656818674916,329.4495,-0.466093731873288));
#865=CARTESIAN_POINT('Ctrl Pts',(405.656818674916,347.109980812606,-0.466093731873288));
#866=CARTESIAN_POINT('Ctrl Pts',(401.676911270722,382.434047546804,-0.466093731873286));
#867=CARTESIAN_POINT('Ctrl Pts',(384.068932964998,432.758888358515,-0.466093731873275));
#868=CARTESIAN_POINT('Ctrl Pts',(355.698468300453,477.9059470031,-0.466093731873258));
#869=CARTESIAN_POINT('Ctrl Pts',(317.999236964972,515.606905401185,-0.466093731873232));
#870=CARTESIAN_POINT('Ctrl Pts',(272.849648558947,543.974387628245,-0.466093731873204));
#871=CARTESIAN_POINT('Ctrl Pts',(222.52642446135,561.582353881929,-0.466093731873173));
#872=CARTESIAN_POINT('Ctrl Pts',(187.205480812606,565.561318674916,-0.46609373187315));
#873=CARTESIAN_POINT('Ctrl Pts',(169.545,565.561318674916,-0.466093731873139));
#874=CARTESIAN_POINT('',(169.545,565.561318674916,-0.466093731873153));
#875=CARTESIAN_POINT('',(169.545,566.060167715189,-4.11485660360239E-13));
#876=CARTESIAN_POINT('Origin',(169.545,566.060167715189,-0.500000000000411));
#877=CARTESIAN_POINT('Ctrl Pts',(169.545,566.060167715189,-4.11476408501699E-13));
#878=CARTESIAN_POINT('Ctrl Pts',(187.242793277325,566.060167715189,-4.22938032090932E-13));
#879=CARTESIAN_POINT('Ctrl Pts',(222.638361817528,562.072796300377,-4.45869842112818E-13));
#880=CARTESIAN_POINT('Ctrl Pts',(273.067907115755,544.427628532951,-4.78494741599843E-13));
#881=CARTESIAN_POINT('Ctrl Pts',(318.312886040441,516.000212451824,-5.07847031630273E-13));
#882=CARTESIAN_POINT('Ctrl Pts',(356.09176703292,478.219600747862,-5.32309225001222E-13));
#883=CARTESIAN_POINT('Ctrl Pts',(384.522171852724,432.977156929411,-5.50712403742498E-13));
#884=CARTESIAN_POINT('Ctrl Pts',(402.167351697652,382.545991501331,-5.6215775812284E-13));
#885=CARTESIAN_POINT('Ctrl Pts',(406.155667715189,347.147293277325,-5.6468718589997E-13));
#886=CARTESIAN_POINT('Ctrl Pts',(406.155667715189,329.4495,-5.6468718589997E-13));
#887=CARTESIAN_POINT('Ctrl Pts',(405.656818674916,329.4495,-0.466093731873288));
#888=CARTESIAN_POINT('Ctrl Pts',(405.656818674916,347.109980812606,-0.466093731873288));
#889=CARTESIAN_POINT('Ctrl Pts',(401.676911270722,382.434047546804,-0.466093731873286));
#890=CARTESIAN_POINT('Ctrl Pts',(384.068932964998,432.758888358515,-0.466093731873275));
#891=CARTESIAN_POINT('Ctrl Pts',(355.698468300453,477.9059470031,-0.466093731873258));
#892=CARTESIAN_POINT('Ctrl Pts',(317.999236964972,515.606905401185,-0.466093731873232));
#893=CARTESIAN_POINT('Ctrl Pts',(272.849648558947,543.974387628245,-0.466093731873204));
#894=CARTESIAN_POINT('Ctrl Pts',(222.52642446135,561.582353881929,-0.466093731873173));
#895=CARTESIAN_POINT('Ctrl Pts',(187.205480812606,565.561318674916,-0.46609373187315));
#896=CARTESIAN_POINT('Ctrl Pts',(169.545,565.561318674916,-0.466093731873139));
#897=CARTESIAN_POINT('Ctrl Pts',(169.545,566.060167715189,-4.11476408501699E-13));
#898=CARTESIAN_POINT('Ctrl Pts',(113.03,566.060167715189,-3.74875593530296E-13));
#899=CARTESIAN_POINT('Ctrl Pts',(56.515,566.060167715189,-3.38303921913289E-13));
#900=CARTESIAN_POINT('Ctrl Pts',(8.88178419700125E-15,566.060167715189,
-3.01703106941886E-13));
#901=CARTESIAN_POINT('Ctrl Pts',(169.545,565.934923406057,-4.11476408501699E-13));
#902=CARTESIAN_POINT('Ctrl Pts',(113.03,565.934923406057,-3.74875196142347E-13));
#903=CARTESIAN_POINT('Ctrl Pts',(56.5150000000002,565.934923406057,-3.38304319301238E-13));
#904=CARTESIAN_POINT('Ctrl Pts',(8.87627109692245E-15,565.934923406057,
-3.01703106941886E-13));
#905=CARTESIAN_POINT('Ctrl Pts',(169.545,565.685420653344,-0.0989171289746698));
#906=CARTESIAN_POINT('Ctrl Pts',(113.03,565.685420653344,-0.0989171289746332));
#907=CARTESIAN_POINT('Ctrl Pts',(56.5149999999998,565.685420653344,-0.0989171289745957));
#908=CARTESIAN_POINT('Ctrl Pts',(8.86528829335098E-15,565.685420653344,
-0.0989171289745591));
#909=CARTESIAN_POINT('Ctrl Pts',(169.545,565.56981180917,-0.341137725052736));
#910=CARTESIAN_POINT('Ctrl Pts',(113.03,565.56981180917,-0.341137725052699));
#911=CARTESIAN_POINT('Ctrl Pts',(56.5150000000001,565.569811809169,-0.34113772505266));
#912=CARTESIAN_POINT('Ctrl Pts',(8.86019933456038E-15,565.569811809169,
-0.341137725052623));
#913=CARTESIAN_POINT('Ctrl Pts',(169.545,565.561318674916,-0.466093731873133));
#914=CARTESIAN_POINT('Ctrl Pts',(113.03,565.561318674916,-0.466093731873096));
#915=CARTESIAN_POINT('Ctrl Pts',(56.515,565.561318674916,-0.466093731873057));
#916=CARTESIAN_POINT('Ctrl Pts',(8.85982547726141E-15,565.561318674916,
-0.46609373187302));
#917=CARTESIAN_POINT('',(4.44089209850063E-15,565.561318674916,-0.466093731873024));
#918=CARTESIAN_POINT('',(3.99596774308223E-15,566.060167715189,-3.01683215446032E-13));
#919=CARTESIAN_POINT('Ctrl Pts',(3.55202005107203E-14,565.561318674916,
-0.46609373187302));
#920=CARTESIAN_POINT('Ctrl Pts',(3.55205743680194E-14,565.569811809169,
-0.341137725052623));
#921=CARTESIAN_POINT('Ctrl Pts',(3.55231188474145E-14,565.627616231257,
-0.220027427013591));
#922=CARTESIAN_POINT('Ctrl Pts',(3.5527136788005E-14,565.718894130479,-0.134742995750511));
#923=CARTESIAN_POINT('Ctrl Pts',(3.55161322861405E-14,565.810172029701,
-0.0494585644874304));
#924=CARTESIAN_POINT('Ctrl Pts',(3.55216236879264E-14,565.934923406057,
-3.01703106941886E-13));
#925=CARTESIAN_POINT('Ctrl Pts',(3.5527136788005E-14,566.060167715189,-3.01703106941886E-13));
#926=CARTESIAN_POINT('Ctrl Pts',(8.88178419700125E-15,566.060167715189,
-3.01703106941886E-13));
#927=CARTESIAN_POINT('Ctrl Pts',(56.515,566.060167715189,-3.38303921913289E-13));
#928=CARTESIAN_POINT('Ctrl Pts',(113.03,566.060167715189,-3.74875593530296E-13));
#929=CARTESIAN_POINT('Ctrl Pts',(169.545,566.060167715189,-4.11476408501699E-13));
#930=CARTESIAN_POINT('Ctrl Pts',(169.545,565.561318674916,-0.466093731873133));
#931=CARTESIAN_POINT('Ctrl Pts',(113.03,565.561318674916,-0.466093731873096));
#932=CARTESIAN_POINT('Ctrl Pts',(56.515,565.561318674916,-0.466093731873057));
#933=CARTESIAN_POINT('Ctrl Pts',(8.85982547726141E-15,565.561318674916,
-0.46609373187302));
#934=CARTESIAN_POINT('Ctrl Pts',(169.545,565.5925,1.10596624451157E-13));
#935=CARTESIAN_POINT('Ctrl Pts',(0.,565.5925,1.10596624451157E-13));
#936=CARTESIAN_POINT('Ctrl Pts',(169.545,561.385473740321,-63.9042605700507));
#937=CARTESIAN_POINT('Ctrl Pts',(0.,561.385473740321,-63.9042605700507));
#938=CARTESIAN_POINT('Ctrl Pts',(169.545,533.463810214615,-63.9042605700508));
#939=CARTESIAN_POINT('Ctrl Pts',(0.,533.463810214615,-63.9042605700508));
#940=CARTESIAN_POINT('Ctrl Pts',(169.545,529.234129829633,9.7294932821842E-14));
#941=CARTESIAN_POINT('Ctrl Pts',(0.,529.234129829633,9.7294932821842E-14));
#942=CARTESIAN_POINT('Ctrl Pts',(0.,565.561318674917,-0.466093731851079));
#943=CARTESIAN_POINT('Ctrl Pts',(0.,561.260046199761,-63.7489545331284));
#944=CARTESIAN_POINT('Ctrl Pts',(0.,533.589127504917,-63.7488959927129));
#945=CARTESIAN_POINT('Ctrl Pts',(0.,529.26546438643,-0.465918110604427));
#946=CARTESIAN_POINT('Ctrl Pts',(169.545,565.561318674916,-0.46609373187317));
#947=CARTESIAN_POINT('Ctrl Pts',(169.545,561.260046199755,-63.7489545331258));
#948=CARTESIAN_POINT('Ctrl Pts',(169.545,533.589127504919,-63.7488959927055));
#949=CARTESIAN_POINT('Ctrl Pts',(169.545,529.265464386431,-0.46591811061234));
#950=CARTESIAN_POINT('Ctrl Pts',(405.688,329.4495,1.10596624451157E-13));
#951=CARTESIAN_POINT('Ctrl Pts',(405.688,565.5925,1.10596624451157E-13));
#952=CARTESIAN_POINT('Ctrl Pts',(169.545,565.5925,1.10596624451157E-13));
#953=CARTESIAN_POINT('Ctrl Pts',(401.480973740321,329.4495,-63.9042605700507));
#954=CARTESIAN_POINT('Ctrl Pts',(401.480973740321,561.385473740321,-63.9042605700507));
#955=CARTESIAN_POINT('Ctrl Pts',(169.545,561.385473740321,-63.9042605700507));
#956=CARTESIAN_POINT('Ctrl Pts',(373.559310214615,329.4495,-63.9042605700508));
#957=CARTESIAN_POINT('Ctrl Pts',(373.559310214615,533.463810214615,-63.9042605700508));
#958=CARTESIAN_POINT('Ctrl Pts',(169.545,533.463810214615,-63.9042605700508));
#959=CARTESIAN_POINT('Ctrl Pts',(369.329629829633,329.4495,9.7294932821842E-14));
#960=CARTESIAN_POINT('Ctrl Pts',(369.329629829633,529.234129829633,9.7294932821842E-14));
#961=CARTESIAN_POINT('Ctrl Pts',(169.545,529.234129829633,9.7294932821842E-14));
#962=CARTESIAN_POINT('Ctrl Pts',(405.656818674916,329.4495,-0.466093731873297));
#963=CARTESIAN_POINT('Ctrl Pts',(401.355546199755,329.4495,-63.7489545331249));
#964=CARTESIAN_POINT('Ctrl Pts',(373.684627504919,329.4495,-63.7488959927055));
#965=CARTESIAN_POINT('Ctrl Pts',(369.360964386431,329.4495,-0.465918110614917));
#966=CARTESIAN_POINT('Ctrl Pts',(405.688,0.,1.10596624451157E-13));
#967=CARTESIAN_POINT('Ctrl Pts',(405.688,329.4495,1.10596624451157E-13));
#968=CARTESIAN_POINT('Ctrl Pts',(401.480973740321,0.,-63.9042605700507));
#969=CARTESIAN_POINT('Ctrl Pts',(401.480973740321,329.4495,-63.9042605700507));
#970=CARTESIAN_POINT('Ctrl Pts',(373.559310214615,0.,-63.9042605700508));
#971=CARTESIAN_POINT('Ctrl Pts',(373.559310214615,329.4495,-63.9042605700508));
#972=CARTESIAN_POINT('Ctrl Pts',(369.329629829633,0.,9.7294932821842E-14));
#973=CARTESIAN_POINT('Ctrl Pts',(369.329629829633,329.4495,9.7294932821842E-14));
#974=CARTESIAN_POINT('Ctrl Pts',(369.360964386431,0.,-0.465918110614919));
#975=CARTESIAN_POINT('Ctrl Pts',(373.68462750492,0.,-63.7488959927128));
#976=CARTESIAN_POINT('Ctrl Pts',(401.355546199761,0.,-63.7489545331249));
#977=CARTESIAN_POINT('Ctrl Pts',(405.656818674917,0.,-0.466093731851418));
#978=CARTESIAN_POINT('Ctrl Pts',(403.144692650481,0.,1.99999999999944));
#979=CARTESIAN_POINT('Ctrl Pts',(403.144692650481,109.8165,1.99999999999944));
#980=CARTESIAN_POINT('Ctrl Pts',(403.144692650481,219.633,1.99999999999944));
#981=CARTESIAN_POINT('Ctrl Pts',(403.144692650481,329.4495,1.99999999999944));
#982=CARTESIAN_POINT('Ctrl Pts',(403.019415518093,0.,1.99999999999944));
#983=CARTESIAN_POINT('Ctrl Pts',(403.019415518093,109.8165,1.99999999999944));
#984=CARTESIAN_POINT('Ctrl Pts',(403.019415518093,219.633,1.99999999999944));
#985=CARTESIAN_POINT('Ctrl Pts',(403.019415518093,329.4495,1.99999999999944));
#986=CARTESIAN_POINT('Ctrl Pts',(402.769848453615,0.,1.90102848202179));
#987=CARTESIAN_POINT('Ctrl Pts',(402.769848453615,109.8165,1.90102848202179));
#988=CARTESIAN_POINT('Ctrl Pts',(402.769848453615,219.633,1.90102848202179));
#989=CARTESIAN_POINT('Ctrl Pts',(402.769848453615,329.4495,1.90102848202179));
#990=CARTESIAN_POINT('Ctrl Pts',(402.654276422904,0.,1.65870187027453));
#991=CARTESIAN_POINT('Ctrl Pts',(402.654276422904,109.8165,1.65870187027453));
#992=CARTESIAN_POINT('Ctrl Pts',(402.654276422904,219.633,1.65870187027453));
#993=CARTESIAN_POINT('Ctrl Pts',(402.654276422904,329.4495,1.65870187027453));
#994=CARTESIAN_POINT('Ctrl Pts',(402.645830293935,0.,1.5337097793058));
#995=CARTESIAN_POINT('Ctrl Pts',(402.645830293935,109.8165,1.5337097793058));
#996=CARTESIAN_POINT('Ctrl Pts',(402.645830293935,219.633,1.5337097793058));
#997=CARTESIAN_POINT('Ctrl Pts',(402.645830293935,329.4495,1.5337097793058));
#998=CARTESIAN_POINT('',(402.645830293935,0.,1.53370977930579));
#999=CARTESIAN_POINT('',(403.144692650481,0.,1.99999999999944));
#1000=CARTESIAN_POINT('Ctrl Pts',(402.645830293935,0.,1.5337097793058));
#1001=CARTESIAN_POINT('Ctrl Pts',(402.654276422904,0.,1.65870187027453));
#1002=CARTESIAN_POINT('Ctrl Pts',(402.71206243826,0.,1.77986517614816));
#1003=CARTESIAN_POINT('Ctrl Pts',(402.803347212057,0.,1.86518970857939));
#1004=CARTESIAN_POINT('Ctrl Pts',(402.894631985854,0.,1.95051424101062));
#1005=CARTESIAN_POINT('Ctrl Pts',(403.019415518093,0.,1.99999999999944));
#1006=CARTESIAN_POINT('Ctrl Pts',(403.144692650481,0.,1.99999999999944));
#1007=CARTESIAN_POINT('',(403.144692650481,329.4495,1.99999999999944));
#1008=CARTESIAN_POINT('Ctrl Pts',(403.144692650481,0.,1.99999999999944));
#1009=CARTESIAN_POINT('Ctrl Pts',(403.144692650481,109.8165,1.99999999999944));
#1010=CARTESIAN_POINT('Ctrl Pts',(403.144692650481,219.633,1.99999999999944));
#1011=CARTESIAN_POINT('Ctrl Pts',(403.144692650481,329.4495,1.99999999999944));
#1012=CARTESIAN_POINT('',(402.645830293935,329.4495,1.5337097793058));
#1013=CARTESIAN_POINT('Origin',(403.144692650481,329.4495,1.49999999999945));
#1014=CARTESIAN_POINT('Ctrl Pts',(402.645830293935,329.4495,1.5337097793058));
#1015=CARTESIAN_POINT('Ctrl Pts',(402.645830293935,219.633,1.5337097793058));
#1016=CARTESIAN_POINT('Ctrl Pts',(402.645830293935,109.8165,1.5337097793058));
#1017=CARTESIAN_POINT('Ctrl Pts',(402.645830293935,0.,1.5337097793058));
#1018=CARTESIAN_POINT('Ctrl Pts',(403.144692650481,329.4495,1.99999999999944));
#1019=CARTESIAN_POINT('Ctrl Pts',(403.144692650481,346.922081055185,1.99999999999944));
#1020=CARTESIAN_POINT('Ctrl Pts',(399.207529989618,381.870620084697,1.99999999999944));
#1021=CARTESIAN_POINT('Ctrl Pts',(381.785514060421,431.659011742867,1.99999999999946));
#1022=CARTESIAN_POINT('Ctrl Pts',(353.719236082398,476.327377007399,1.99999999999949));
#1023=CARTESIAN_POINT('Ctrl Pts',(316.418778387182,513.624937985087,1.99999999999952));
#1024=CARTESIAN_POINT('Ctrl Pts',(271.751208631275,541.692942255222,1.99999999999956));
#1025=CARTESIAN_POINT('Ctrl Pts',(221.962426904999,559.112143462168,1.99999999999961));
#1026=CARTESIAN_POINT('Ctrl Pts',(187.017581055185,563.049192650481,1.99999999999964));
#1027=CARTESIAN_POINT('Ctrl Pts',(169.545,563.049192650481,1.99999999999965));
#1028=CARTESIAN_POINT('Ctrl Pts',(403.019415518093,329.4495,1.99999999999944));
#1029=CARTESIAN_POINT('Ctrl Pts',(403.019415518093,346.912696392677,1.99999999999944));
#1030=CARTESIAN_POINT('Ctrl Pts',(399.08436135333,381.842517260572,1.99999999999944));
#1031=CARTESIAN_POINT('Ctrl Pts',(381.671693152363,431.604191840099,1.99999999999946));
#1032=CARTESIAN_POINT('Ctrl Pts',(353.62046117691,476.248610050355,1.99999999999949));
#1033=CARTESIAN_POINT('Ctrl Pts',(316.340013822504,513.526165486807,1.99999999999952));
#1034=CARTESIAN_POINT('Ctrl Pts',(271.696391667127,541.579116501861,1.99999999999956));
#1035=CARTESIAN_POINT('Ctrl Pts',(221.934324384886,558.988977009785,1.99999999999961));
#1036=CARTESIAN_POINT('Ctrl Pts',(187.008196392677,562.923915518093,1.99999999999964));
#1037=CARTESIAN_POINT('Ctrl Pts',(169.545,562.923915518093,1.99999999999965));
#1038=CARTESIAN_POINT('Ctrl Pts',(402.769849612586,329.4495,1.90102724209145));
#1039=CARTESIAN_POINT('Ctrl Pts',(402.769849612586,346.894064187407,1.90102724209145));
#1040=CARTESIAN_POINT('Ctrl Pts',(398.839008884602,381.786488812423,1.90102724209145));
#1041=CARTESIAN_POINT('Ctrl Pts',(381.444942629098,431.495010935653,1.90102724209147));
#1042=CARTESIAN_POINT('Ctrl Pts',(353.423708912958,476.091688070954,1.9010272420915));
#1043=CARTESIAN_POINT('Ctrl Pts',(316.18309575151,513.329404551974,1.90102724209153));
#1044=CARTESIAN_POINT('Ctrl Pts',(271.587211466362,541.352370777263,1.90102724209157));
#1045=CARTESIAN_POINT('Ctrl Pts',(221.87830394056,558.743618986387,1.90102724209162));
#1046=CARTESIAN_POINT('Ctrl Pts',(186.989564187407,562.674349612586,1.90102724209165));
#1047=CARTESIAN_POINT('Ctrl Pts',(169.545,562.674349612586,1.90102724209167));
#1048=CARTESIAN_POINT('Ctrl Pts',(402.654276422905,329.4495,1.65870187027452));
#1049=CARTESIAN_POINT('Ctrl Pts',(402.654276422905,346.885334624647,1.65870187027452));
#1050=CARTESIAN_POINT('Ctrl Pts',(398.725365972949,381.76061351883,1.65870187027452));
#1051=CARTESIAN_POINT('Ctrl Pts',(381.339945878217,431.444407301761,1.65870187027454));
#1052=CARTESIAN_POINT('Ctrl Pts',(353.332564282845,476.019033192004,1.65870187027456));
#1053=CARTESIAN_POINT('Ctrl Pts',(316.110444056058,513.238277477673,1.6587018702746));
#1054=CARTESIAN_POINT('Ctrl Pts',(271.536616408569,541.24735309994,1.65870187027464));
#1055=CARTESIAN_POINT('Ctrl Pts',(221.852420502561,558.629989369304,1.65870187027468));
#1056=CARTESIAN_POINT('Ctrl Pts',(186.980834624647,562.558776422905,1.65870187027472));
#1057=CARTESIAN_POINT('Ctrl Pts',(169.545,562.558776422905,1.65870187027474));
#1058=CARTESIAN_POINT('Ctrl Pts',(402.645830293935,329.4495,1.53370977930579));
#1059=CARTESIAN_POINT('Ctrl Pts',(402.645830293935,346.884767594446,1.53370977930579));
#1060=CARTESIAN_POINT('Ctrl Pts',(398.717075616065,381.758672490925,1.5337097793058));
#1061=CARTESIAN_POINT('Ctrl Pts',(381.332265163569,431.440738861978,1.53370977930581));
#1062=CARTESIAN_POINT('Ctrl Pts',(353.325923949216,476.013712879604,1.53370977930584));
#1063=CARTESIAN_POINT('Ctrl Pts',(316.105123012169,513.231623285189,1.53370977930587));
#1064=CARTESIAN_POINT('Ctrl Pts',(271.532942804326,541.239687105081,1.53370977930591));
#1065=CARTESIAN_POINT('Ctrl Pts',(221.850487198173,558.62168884629,1.53370977930596));
#1066=CARTESIAN_POINT('Ctrl Pts',(186.980267594446,562.550330293935,1.533709779306));
#1067=CARTESIAN_POINT('Ctrl Pts',(169.545,562.550330293935,1.53370977930601));
#1068=CARTESIAN_POINT('',(169.545,563.049192650481,1.99999999999965));
#1069=CARTESIAN_POINT('',(169.545,562.550330293935,1.53370977930594));
#1070=CARTESIAN_POINT('Origin',(169.545,563.049192650481,1.49999999999966));
#1071=CARTESIAN_POINT('Ctrl Pts',(169.545,562.550330293935,1.53370977930601));
#1072=CARTESIAN_POINT('Ctrl Pts',(186.980267594446,562.550330293935,1.533709779306));
#1073=CARTESIAN_POINT('Ctrl Pts',(221.850487198173,558.62168884629,1.53370977930596));
#1074=CARTESIAN_POINT('Ctrl Pts',(271.532942804326,541.239687105081,1.53370977930591));
#1075=CARTESIAN_POINT('Ctrl Pts',(316.105123012169,513.231623285189,1.53370977930587));
#1076=CARTESIAN_POINT('Ctrl Pts',(353.325923949216,476.013712879604,1.53370977930584));
#1077=CARTESIAN_POINT('Ctrl Pts',(381.332265163569,431.440738861978,1.53370977930581));
#1078=CARTESIAN_POINT('Ctrl Pts',(398.717075616065,381.758672490925,1.5337097793058));
#1079=CARTESIAN_POINT('Ctrl Pts',(402.645830293935,346.884767594446,1.53370977930579));
#1080=CARTESIAN_POINT('Ctrl Pts',(402.645830293935,329.4495,1.53370977930579));
#1081=CARTESIAN_POINT('Ctrl Pts',(403.144692650481,329.4495,1.99999999999944));
#1082=CARTESIAN_POINT('Ctrl Pts',(403.144692650481,346.922081055185,1.99999999999944));
#1083=CARTESIAN_POINT('Ctrl Pts',(399.207529989618,381.870620084697,1.99999999999944));
#1084=CARTESIAN_POINT('Ctrl Pts',(381.785514060421,431.659011742867,1.99999999999946));
#1085=CARTESIAN_POINT('Ctrl Pts',(353.719236082398,476.327377007399,1.99999999999949));
#1086=CARTESIAN_POINT('Ctrl Pts',(316.418778387182,513.624937985087,1.99999999999952));
#1087=CARTESIAN_POINT('Ctrl Pts',(271.751208631275,541.692942255222,1.99999999999956));
#1088=CARTESIAN_POINT('Ctrl Pts',(221.962426904999,559.112143462168,1.99999999999961));
#1089=CARTESIAN_POINT('Ctrl Pts',(187.017581055185,563.049192650481,1.99999999999964));
#1090=CARTESIAN_POINT('Ctrl Pts',(169.545,563.049192650481,1.99999999999965));
#1091=CARTESIAN_POINT('Ctrl Pts',(169.545,563.049192650481,1.99999999999965));
#1092=CARTESIAN_POINT('Ctrl Pts',(113.03,563.049192650481,1.99999999999971));
#1093=CARTESIAN_POINT('Ctrl Pts',(56.515,563.049192650481,1.99999999999976));
#1094=CARTESIAN_POINT('Ctrl Pts',(0.,563.049192650481,1.99999999999981));
#1095=CARTESIAN_POINT('Ctrl Pts',(169.545,562.923915518093,1.99999999999965));
#1096=CARTESIAN_POINT('Ctrl Pts',(113.03,562.923915518093,1.99999999999971));
#1097=CARTESIAN_POINT('Ctrl Pts',(56.5150000000002,562.923915518093,1.99999999999976));
#1098=CARTESIAN_POINT('Ctrl Pts',(-7.69679250669349E-18,562.923915518093,
1.99999999999981));
#1099=CARTESIAN_POINT('Ctrl Pts',(169.545,562.674348453615,1.901028482022));
#1100=CARTESIAN_POINT('Ctrl Pts',(113.03,562.674348453615,1.90102848202206));
#1101=CARTESIAN_POINT('Ctrl Pts',(56.5149999999998,562.674348453615,1.90102848202211));
#1102=CARTESIAN_POINT('Ctrl Pts',(1.73505760287244E-15,562.674348453615,
1.90102848202216));
#1103=CARTESIAN_POINT('Ctrl Pts',(169.545,562.558776422905,1.65870187027474));
#1104=CARTESIAN_POINT('Ctrl Pts',(113.03,562.558776422905,1.65870187027479));
#1105=CARTESIAN_POINT('Ctrl Pts',(56.5150000000001,562.558776422905,1.65870187027484));
#1106=CARTESIAN_POINT('Ctrl Pts',(6.03254241510528E-15,562.558776422905,
1.65870187027489));
#1107=CARTESIAN_POINT('Ctrl Pts',(169.545,562.550330293935,1.53370977930601));
#1108=CARTESIAN_POINT('Ctrl Pts',(113.03,562.550330293935,1.53370977930606));
#1109=CARTESIAN_POINT('Ctrl Pts',(56.515,562.550330293935,1.53370977930611));
#1110=CARTESIAN_POINT('Ctrl Pts',(8.25232905738412E-15,562.550330293935,
1.53370977930616));
#1111=CARTESIAN_POINT('',(1.43210199123938E-17,563.049192650481,1.99999999999981));
#1112=CARTESIAN_POINT('',(4.44089209850063E-15,562.550330293935,1.53370977930616));
#1113=CARTESIAN_POINT('Ctrl Pts',(3.5527136788005E-14,563.049192650481,
1.99999999999981));
#1114=CARTESIAN_POINT('Ctrl Pts',(3.55194399954985E-14,562.923915518093,
1.99999999999981));
#1115=CARTESIAN_POINT('Ctrl Pts',(3.63908171931879E-14,562.799131985854,
1.95051424101098));
#1116=CARTESIAN_POINT('Ctrl Pts',(3.79008769950908E-14,562.707847212057,
1.86518970857975));
#1117=CARTESIAN_POINT('Ctrl Pts',(3.7037196589908E-14,562.61656243826,1.77986517614852));
#1118=CARTESIAN_POINT('Ctrl Pts',(3.91859389960246E-14,562.558776422905,
1.65870187027489));
#1119=CARTESIAN_POINT('Ctrl Pts',(4.14057256383032E-14,562.550330293935,
1.53370977930616));
#1120=CARTESIAN_POINT('Ctrl Pts',(8.25232905738412E-15,562.550330293935,
1.53370977930616));
#1121=CARTESIAN_POINT('Ctrl Pts',(56.515,562.550330293935,1.53370977930611));
#1122=CARTESIAN_POINT('Ctrl Pts',(113.03,562.550330293935,1.53370977930606));
#1123=CARTESIAN_POINT('Ctrl Pts',(169.545,562.550330293935,1.53370977930601));
#1124=CARTESIAN_POINT('Ctrl Pts',(169.545,563.049192650481,1.99999999999965));
#1125=CARTESIAN_POINT('Ctrl Pts',(113.03,563.049192650481,1.99999999999971));
#1126=CARTESIAN_POINT('Ctrl Pts',(56.515,563.049192650481,1.99999999999976));
#1127=CARTESIAN_POINT('Ctrl Pts',(0.,563.049192650481,1.99999999999981));
#1128=CARTESIAN_POINT('Origin',(402.676932642544,0.,1.99999999999944));
#1129=CARTESIAN_POINT('',(420.688,0.,1.99999999999943));
#1130=CARTESIAN_POINT('',(402.676932642544,0.,1.99999999999944));
#1131=CARTESIAN_POINT('',(420.688,329.4495,1.99999999999943));
#1132=CARTESIAN_POINT('',(420.688,0.,1.99999999999943));
#1133=CARTESIAN_POINT('',(169.545,580.5925,1.99999999999943));
#1134=CARTESIAN_POINT('Origin',(169.545,329.4495,1.99999999999943));
#1135=CARTESIAN_POINT('',(0.,580.5925,1.99999999999943));
#1136=CARTESIAN_POINT('',(169.545,580.5925,1.99999999999943));
#1137=CARTESIAN_POINT('',(0.,562.581432642544,1.99999999999944));
#1138=CARTESIAN_POINT('Origin',(387.508814914817,0.,-30.9521302850237));
#1139=CARTESIAN_POINT('',(372.776255713451,0.,1.53388548899183));
#1140=CARTESIAN_POINT('Ctrl Pts',(372.776255713451,0.,1.53388548899182));
#1141=CARTESIAN_POINT('Ctrl Pts',(376.974136728266,0.,-60.2658672936939));
#1142=CARTESIAN_POINT('Ctrl Pts',(398.469824525216,0.,-60.2659258635878));
#1143=CARTESIAN_POINT('Ctrl Pts',(402.645830293935,0.,1.53370977930578));
#1144=CARTESIAN_POINT('',(372.277405261275,0.,2.00000000000315));
#1145=CARTESIAN_POINT('Ctrl Pts',(372.277405261275,4.44089209850063E-15,
2.00000000000314));
#1146=CARTESIAN_POINT('Ctrl Pts',(372.402653041582,4.44089209850064E-15,
2.00000000000316));
#1147=CARTESIAN_POINT('Ctrl Pts',(372.527408040525,4.44089209850063E-15,
1.95053879754196));
#1148=CARTESIAN_POINT('Ctrl Pts',(372.618686667351,4.44089209850063E-15,
1.86525012570927));
#1149=CARTESIAN_POINT('Ctrl Pts',(372.709965294178,4.44089209850063E-15,
1.77996145387658));
#1150=CARTESIAN_POINT('Ctrl Pts',(372.76776754889,4.44089209850064E-15,
1.65884531267239));
#1151=CARTESIAN_POINT('Ctrl Pts',(372.776255713451,4.44089209850063E-15,
1.53388548899183));
#1152=CARTESIAN_POINT('',(354.329629829633,0.,2.0000000000004));
#1153=CARTESIAN_POINT('',(354.329629829633,0.,2.0000000000004));
#1154=CARTESIAN_POINT('',(354.329629829633,0.,3.99085778081712E-13));
#1155=CARTESIAN_POINT('',(420.688,0.,-5.74133425986408E-13));
#1156=CARTESIAN_POINT('',(420.688,0.,-5.74133425986408E-13));
#1157=CARTESIAN_POINT('',(420.688,0.,1.99999999999943));
#1158=CARTESIAN_POINT('Ctrl Pts',(372.745,0.,2.00000000000335));
#1159=CARTESIAN_POINT('Ctrl Pts',(372.745,329.4495,2.00000000000335));
#1160=CARTESIAN_POINT('Ctrl Pts',(376.876526360285,0.,-60.4212973673142));
#1161=CARTESIAN_POINT('Ctrl Pts',(376.876526360285,329.4495,-60.4212973673142));
#1162=CARTESIAN_POINT('Ctrl Pts',(398.567534695601,0.,-60.4212973673138));
#1163=CARTESIAN_POINT('Ctrl Pts',(398.567534695601,329.4495,-60.4212973673138));
#1164=CARTESIAN_POINT('Ctrl Pts',(402.676932642544,0.,2.00000000000012));
#1165=CARTESIAN_POINT('Ctrl Pts',(402.676932642544,329.4495,2.00000000000012));
#1166=CARTESIAN_POINT('',(372.776255713451,329.4495,1.53388548899183));
#1167=CARTESIAN_POINT('Ctrl Pts',(372.776255713451,329.4495,1.53388548899182));
#1168=CARTESIAN_POINT('Ctrl Pts',(376.974136728266,329.4495,-60.2658672936939));
#1169=CARTESIAN_POINT('Ctrl Pts',(398.469824525216,329.4495,-60.2659258635878));
#1170=CARTESIAN_POINT('Ctrl Pts',(402.645830293935,329.4495,1.53370977930581));
#1171=CARTESIAN_POINT('Ctrl Pts',(372.776255713451,0.,1.53388548899183));
#1172=CARTESIAN_POINT('Ctrl Pts',(372.776255713451,109.8165,1.53388548899183));
#1173=CARTESIAN_POINT('Ctrl Pts',(372.776255713451,219.633,1.53388548899183));
#1174=CARTESIAN_POINT('Ctrl Pts',(372.776255713451,329.4495,1.53388548899183));
#1175=CARTESIAN_POINT('Ctrl Pts',(372.776255713451,0.,1.53388548899183));
#1176=CARTESIAN_POINT('Ctrl Pts',(372.776255713451,109.8165,1.53388548899183));
#1177=CARTESIAN_POINT('Ctrl Pts',(372.776255713451,219.633,1.53388548899183));
#1178=CARTESIAN_POINT('Ctrl Pts',(372.776255713451,329.4495,1.53388548899183));
#1179=CARTESIAN_POINT('Ctrl Pts',(372.76776754889,0.,1.65884531267239));
#1180=CARTESIAN_POINT('Ctrl Pts',(372.76776754889,109.8165,1.65884531267239));
#1181=CARTESIAN_POINT('Ctrl Pts',(372.76776754889,219.632999999999,1.65884531267239));
#1182=CARTESIAN_POINT('Ctrl Pts',(372.76776754889,329.4495,1.65884531267239));
#1183=CARTESIAN_POINT('Ctrl Pts',(372.652163039467,0.,1.90107759508077));
#1184=CARTESIAN_POINT('Ctrl Pts',(372.652163039467,109.8165,1.90107759508077));
#1185=CARTESIAN_POINT('Ctrl Pts',(372.652163039467,219.633000000001,1.90107759508077));
#1186=CARTESIAN_POINT('Ctrl Pts',(372.652163039467,329.4495,1.90107759508077));
#1187=CARTESIAN_POINT('Ctrl Pts',(372.402653041582,0.,2.00000000000316));
#1188=CARTESIAN_POINT('Ctrl Pts',(372.402653041582,109.8165,2.00000000000316));
#1189=CARTESIAN_POINT('Ctrl Pts',(372.402653041582,219.633,2.00000000000316));
#1190=CARTESIAN_POINT('Ctrl Pts',(372.402653041582,329.4495,2.00000000000316));
#1191=CARTESIAN_POINT('Ctrl Pts',(372.277405261275,0.,2.00000000000314));
#1192=CARTESIAN_POINT('Ctrl Pts',(372.277405261275,109.8165,2.00000000000314));
#1193=CARTESIAN_POINT('Ctrl Pts',(372.277405261275,219.633,2.00000000000314));
#1194=CARTESIAN_POINT('Ctrl Pts',(372.277405261275,329.4495,2.00000000000314));
#1195=CARTESIAN_POINT('',(372.277405261275,329.4495,2.00000000000315));
#1196=CARTESIAN_POINT('Origin',(372.277405261275,329.4495,1.50000000000315));
#1197=CARTESIAN_POINT('Ctrl Pts',(372.277405261275,329.4495,2.00000000000314));
#1198=CARTESIAN_POINT('Ctrl Pts',(372.277405261275,219.633,2.00000000000314));
#1199=CARTESIAN_POINT('Ctrl Pts',(372.277405261275,109.8165,2.00000000000314));
#1200=CARTESIAN_POINT('Ctrl Pts',(372.277405261275,0.,2.00000000000314));
#1201=CARTESIAN_POINT('Ctrl Pts',(372.776255713451,329.4495,1.53388548899183));
#1202=CARTESIAN_POINT('Ctrl Pts',(372.776255713451,344.650609847834,1.53388548899183));
#1203=CARTESIAN_POINT('Ctrl Pts',(369.35048514058,375.055443966371,1.53388548899131));
#1204=CARTESIAN_POINT('Ctrl Pts',(354.194803865791,418.372296388092,1.533885488989));
#1205=CARTESIAN_POINT('Ctrl Pts',(329.774890030791,457.231995498992,1.53388548898526));
#1206=CARTESIAN_POINT('Ctrl Pts',(297.32591582294,489.683190932358,1.5338854889803));
#1207=CARTESIAN_POINT('Ctrl Pts',(258.463283514842,514.099404926013,1.53388548897436));
#1208=CARTESIAN_POINT('Ctrl Pts',(215.148692133145,529.256581813824,1.53388548896775));
#1209=CARTESIAN_POINT('Ctrl Pts',(184.746109847834,532.680755713453,1.5338854889631));
#1210=CARTESIAN_POINT('Ctrl Pts',(169.545,532.680755713453,1.53388548896078));
#1211=CARTESIAN_POINT('Ctrl Pts',(372.76776754889,329.4495,1.65884531267239));
#1212=CARTESIAN_POINT('Ctrl Pts',(372.76776754889,344.650039605695,1.65884531267239));
#1213=CARTESIAN_POINT('Ctrl Pts',(369.342143226477,375.053501082006,1.65884531267187));
#1214=CARTESIAN_POINT('Ctrl Pts',(354.187103492896,418.368604325194,1.65884531266956));
#1215=CARTESIAN_POINT('Ctrl Pts',(329.76820002658,457.226648609322,1.65884531266582));
#1216=CARTESIAN_POINT('Ctrl Pts',(297.320576801835,489.676518500441,1.65884531266086));
#1217=CARTESIAN_POINT('Ctrl Pts',(258.459592265433,514.091684031728,1.65884531265491));
#1218=CARTESIAN_POINT('Ctrl Pts',(215.146731203435,529.248260959462,1.65884531264829));
#1219=CARTESIAN_POINT('Ctrl Pts',(184.745539605695,532.672267548892,1.65884531264364));
#1220=CARTESIAN_POINT('Ctrl Pts',(169.545,532.672267548892,1.65884531264131));
#1221=CARTESIAN_POINT('Ctrl Pts',(372.652161933543,329.4495,1.9010764114861));
#1222=CARTESIAN_POINT('Ctrl Pts',(372.652161933543,344.641307671329,1.9010764114861));
#1223=CARTESIAN_POINT('Ctrl Pts',(369.22848215295,375.027608780518,1.90107641148558));
#1224=CARTESIAN_POINT('Ctrl Pts',(354.082052307921,418.317992908721,1.90107641148329));
#1225=CARTESIAN_POINT('Ctrl Pts',(329.67705236869,457.153974138316,1.90107641147953));
#1226=CARTESIAN_POINT('Ctrl Pts',(297.247892974227,489.585345376002,1.90107641147457));
#1227=CARTESIAN_POINT('Ctrl Pts',(258.408982594589,513.98665975561,1.9010764114686));
#1228=CARTESIAN_POINT('Ctrl Pts',(215.120864024039,529.134571210576,1.90107641146198));
#1229=CARTESIAN_POINT('Ctrl Pts',(184.736807671328,532.556661933545,1.9010764114573));
#1230=CARTESIAN_POINT('Ctrl Pts',(169.545,532.556661933545,1.90107641145497));
#1231=CARTESIAN_POINT('Ctrl Pts',(372.402653041582,329.4495,2.00000000000316));
#1232=CARTESIAN_POINT('Ctrl Pts',(372.402653041582,344.622679726799,2.00000000000316));
#1233=CARTESIAN_POINT('Ctrl Pts',(368.983180807516,374.971597548331,2.0000000000026));
#1234=CARTESIAN_POINT('Ctrl Pts',(353.855362307522,418.208833284538,2.00000000000037));
#1235=CARTESIAN_POINT('Ctrl Pts',(329.480337808962,456.997089077411,1.99999999999659));
#1236=CARTESIAN_POINT('Ctrl Pts',(297.091014028528,489.388635639247,1.99999999999163));
#1237=CARTESIAN_POINT('Ctrl Pts',(258.299828845396,513.759958650673,1.99999999998566));
#1238=CARTESIAN_POINT('Ctrl Pts',(215.064845848529,528.889279211423,1.99999999997905));
#1239=CARTESIAN_POINT('Ctrl Pts',(184.718179726799,532.307153041584,1.99999999997436));
#1240=CARTESIAN_POINT('Ctrl Pts',(169.545,532.307153041584,1.99999999997203));
#1241=CARTESIAN_POINT('Ctrl Pts',(372.277405261275,329.4495,2.00000000000314));
#1242=CARTESIAN_POINT('Ctrl Pts',(372.277405261275,344.613297277508,2.00000000000315));
#1243=CARTESIAN_POINT('Ctrl Pts',(368.860043568196,374.943499838044,2.00000000000256));
#1244=CARTESIAN_POINT('Ctrl Pts',(353.741563354979,418.154026924416,2.00000000000036));
#1245=CARTESIAN_POINT('Ctrl Pts',(329.38159052175,456.918341206812,1.99999999999658));
#1246=CARTESIAN_POINT('Ctrl Pts',(297.012265408224,489.289882093643,1.99999999999162));
#1247=CARTESIAN_POINT('Ctrl Pts',(258.245025128441,513.646164167139,1.99999999998566));
#1248=CARTESIAN_POINT('Ctrl Pts',(215.036753532157,528.766136322254,1.99999999997904));
#1249=CARTESIAN_POINT('Ctrl Pts',(184.708797277508,532.181905261277,1.99999999997436));
#1250=CARTESIAN_POINT('Ctrl Pts',(169.545,532.181905261277,1.99999999997203));
#1251=CARTESIAN_POINT('',(169.545,532.680755713452,1.53388548896922));
#1252=CARTESIAN_POINT('',(169.545,532.181905261277,1.99999999997204));
#1253=CARTESIAN_POINT('Origin',(169.545,532.181905261277,1.49999999997204));
#1254=CARTESIAN_POINT('Ctrl Pts',(169.545,532.181905261277,1.99999999997203));
#1255=CARTESIAN_POINT('Ctrl Pts',(184.708797277508,532.181905261277,1.99999999997436));
#1256=CARTESIAN_POINT('Ctrl Pts',(215.036753532157,528.766136322254,1.99999999997904));
#1257=CARTESIAN_POINT('Ctrl Pts',(258.245025128441,513.646164167139,1.99999999998566));
#1258=CARTESIAN_POINT('Ctrl Pts',(297.012265408224,489.289882093643,1.99999999999162));
#1259=CARTESIAN_POINT('Ctrl Pts',(329.38159052175,456.918341206812,1.99999999999658));
#1260=CARTESIAN_POINT('Ctrl Pts',(353.741563354979,418.154026924416,2.00000000000036));
#1261=CARTESIAN_POINT('Ctrl Pts',(368.860043568196,374.943499838044,2.00000000000256));
#1262=CARTESIAN_POINT('Ctrl Pts',(372.277405261275,344.613297277508,2.00000000000315));
#1263=CARTESIAN_POINT('Ctrl Pts',(372.277405261275,329.4495,2.00000000000314));
#1264=CARTESIAN_POINT('Ctrl Pts',(372.776255713451,329.4495,1.53388548899183));
#1265=CARTESIAN_POINT('Ctrl Pts',(372.776255713451,344.650609847834,1.53388548899183));
#1266=CARTESIAN_POINT('Ctrl Pts',(369.35048514058,375.055443966371,1.53388548899131));
#1267=CARTESIAN_POINT('Ctrl Pts',(354.194803865791,418.372296388092,1.533885488989));
#1268=CARTESIAN_POINT('Ctrl Pts',(329.774890030791,457.231995498992,1.53388548898526));
#1269=CARTESIAN_POINT('Ctrl Pts',(297.32591582294,489.683190932358,1.5338854889803));
#1270=CARTESIAN_POINT('Ctrl Pts',(258.463283514842,514.099404926013,1.53388548897436));
#1271=CARTESIAN_POINT('Ctrl Pts',(215.148692133145,529.256581813824,1.53388548896775));
#1272=CARTESIAN_POINT('Ctrl Pts',(184.746109847834,532.680755713453,1.5338854889631));
#1273=CARTESIAN_POINT('Ctrl Pts',(169.545,532.680755713453,1.53388548896078));
#1274=CARTESIAN_POINT('Ctrl Pts',(169.545,532.680755713453,1.53388548896078));
#1275=CARTESIAN_POINT('Ctrl Pts',(113.03,532.680755713454,1.53388548895212));
#1276=CARTESIAN_POINT('Ctrl Pts',(56.515,532.680755713454,1.53388548894346));
#1277=CARTESIAN_POINT('Ctrl Pts',(0.,532.680755713455,1.5338854889348));
#1278=CARTESIAN_POINT('Ctrl Pts',(169.545,532.672267548892,1.65884531264131));
#1279=CARTESIAN_POINT('Ctrl Pts',(113.03,532.672267548893,1.65884531263265));
#1280=CARTESIAN_POINT('Ctrl Pts',(56.5150000000001,532.672267548893,1.65884531262399));
#1281=CARTESIAN_POINT('Ctrl Pts',(-1.92670489666138E-14,532.672267548894,
1.65884531261533));
#1282=CARTESIAN_POINT('Ctrl Pts',(169.545,532.556663039468,1.90107759504964));
#1283=CARTESIAN_POINT('Ctrl Pts',(113.03,532.556663039469,1.90107759504097));
#1284=CARTESIAN_POINT('Ctrl Pts',(56.5149999999997,532.55666303947,1.9010775950323));
#1285=CARTESIAN_POINT('Ctrl Pts',(-5.76495363456507E-14,532.55666303947,
1.90107759502363));
#1286=CARTESIAN_POINT('Ctrl Pts',(169.545,532.307153041584,1.99999999997203));
#1287=CARTESIAN_POINT('Ctrl Pts',(113.03,532.307153041585,1.99999999996336));
#1288=CARTESIAN_POINT('Ctrl Pts',(56.515,532.307153041586,1.99999999995469));
#1289=CARTESIAN_POINT('Ctrl Pts',(-7.54331468684116E-14,532.307153041586,
1.99999999994601));
#1290=CARTESIAN_POINT('Ctrl Pts',(169.545,532.181905261277,1.99999999997203));
#1291=CARTESIAN_POINT('Ctrl Pts',(113.03,532.181905261278,1.99999999996336));
#1292=CARTESIAN_POINT('Ctrl Pts',(56.5149999999999,532.181905261278,1.99999999995469));
#1293=CARTESIAN_POINT('Ctrl Pts',(-7.67388936196208E-14,532.181905261279,
1.99999999994601));
#1294=CARTESIAN_POINT('',(0.,532.680755713455,1.5338854889348));
#1295=CARTESIAN_POINT('',(-3.49776446402659E-14,532.181905261279,1.99999999994602));
#1296=CARTESIAN_POINT('Ctrl Pts',(3.5527136788005E-14,532.680755713455,
1.5338854889348));
#1297=CARTESIAN_POINT('Ctrl Pts',(1.62600878213914E-14,532.672267548894,
1.65884531261533));
#1298=CARTESIAN_POINT('Ctrl Pts',(-2.93115586812711E-15,532.614465294182,
1.77996145381948));
#1299=CARTESIAN_POINT('Ctrl Pts',(-1.69726803435765E-14,532.523186667355,
1.86525012565215));
#1300=CARTESIAN_POINT('Ctrl Pts',(-1.40415244754495E-14,532.431908040528,
1.95053879748482));
#1301=CARTESIAN_POINT('Ctrl Pts',(-2.29333297368298E-14,532.307153041586,
1.99999999994601));
#1302=CARTESIAN_POINT('Ctrl Pts',(-2.42390764880391E-14,532.181905261279,
1.99999999994601));
#1303=CARTESIAN_POINT('Ctrl Pts',(-7.67388936196208E-14,532.181905261279,
1.99999999994601));
#1304=CARTESIAN_POINT('Ctrl Pts',(56.5149999999999,532.181905261278,1.99999999995469));
#1305=CARTESIAN_POINT('Ctrl Pts',(113.03,532.181905261278,1.99999999996336));
#1306=CARTESIAN_POINT('Ctrl Pts',(169.545,532.181905261277,1.99999999997203));
#1307=CARTESIAN_POINT('Ctrl Pts',(169.545,532.680755713453,1.53388548896078));
#1308=CARTESIAN_POINT('Ctrl Pts',(113.03,532.680755713454,1.53388548895212));
#1309=CARTESIAN_POINT('Ctrl Pts',(56.515,532.680755713454,1.53388548894346));
#1310=CARTESIAN_POINT('Ctrl Pts',(0.,532.680755713455,1.5338854889348));
#1311=CARTESIAN_POINT('Ctrl Pts',(372.745,329.4495,2.00000000000335));
#1312=CARTESIAN_POINT('Ctrl Pts',(372.745,532.6495,2.00000000000335));
#1313=CARTESIAN_POINT('Ctrl Pts',(169.545,532.6495,2.00000000000335));
#1314=CARTESIAN_POINT('Ctrl Pts',(376.876526360285,329.4495,-60.4212973673142));
#1315=CARTESIAN_POINT('Ctrl Pts',(376.876526360285,536.781026360285,-60.4212973673142));
#1316=CARTESIAN_POINT('Ctrl Pts',(169.545,536.781026360285,-60.4212973673142));
#1317=CARTESIAN_POINT('Ctrl Pts',(398.567534695601,329.4495,-60.4212973673138));
#1318=CARTESIAN_POINT('Ctrl Pts',(398.567534695601,558.472034695601,-60.4212973673138));
#1319=CARTESIAN_POINT('Ctrl Pts',(169.545,558.472034695601,-60.4212973673138));
#1320=CARTESIAN_POINT('Ctrl Pts',(402.676932642544,329.4495,2.00000000000012));
#1321=CARTESIAN_POINT('Ctrl Pts',(402.676932642544,562.581432642544,2.00000000000012));
#1322=CARTESIAN_POINT('Ctrl Pts',(169.545,562.581432642544,2.00000000000012));
#1323=CARTESIAN_POINT('Ctrl Pts',(169.545,532.680755713452,1.53388548897767));
#1324=CARTESIAN_POINT('Ctrl Pts',(169.545,536.87863672827,-60.2658672936939));
#1325=CARTESIAN_POINT('Ctrl Pts',(169.545,558.374324525216,-60.265925863583));
#1326=CARTESIAN_POINT('Ctrl Pts',(169.545,562.550330293935,1.53370977930587));
#1327=CARTESIAN_POINT('Origin',(169.545,580.5925,1.99999999999943));
#1328=CARTESIAN_POINT('',(169.545,580.5925,-5.74133425986408E-13));
#1329=CARTESIAN_POINT('',(169.545,580.5925,1.99999999999943));
#1330=CARTESIAN_POINT('',(0.,580.5925,-5.74133425986408E-13));
#1331=CARTESIAN_POINT('',(169.545,580.5925,-5.74133425986408E-13));
#1332=CARTESIAN_POINT('',(0.,580.5925,1.99999999999943));
#1333=CARTESIAN_POINT('Ctrl Pts',(169.545,532.6495,2.00000000000335));
#1334=CARTESIAN_POINT('Ctrl Pts',(0.,532.6495,2.00000000000335));
#1335=CARTESIAN_POINT('Ctrl Pts',(169.545,536.781026360285,-60.4212973673142));
#1336=CARTESIAN_POINT('Ctrl Pts',(0.,536.781026360285,-60.4212973673142));
#1337=CARTESIAN_POINT('Ctrl Pts',(169.545,558.472034695601,-60.4212973673138));
#1338=CARTESIAN_POINT('Ctrl Pts',(0.,558.472034695601,-60.4212973673138));
#1339=CARTESIAN_POINT('Ctrl Pts',(169.545,562.581432642544,2.00000000000012));
#1340=CARTESIAN_POINT('Ctrl Pts',(0.,562.581432642544,2.00000000000012));
#1341=CARTESIAN_POINT('Ctrl Pts',(0.,532.680755713455,1.5338854889348));
#1342=CARTESIAN_POINT('Ctrl Pts',(0.,536.87863672828,-60.265867293694));
#1343=CARTESIAN_POINT('Ctrl Pts',(0.,558.374324525217,-60.2659258635688));
#1344=CARTESIAN_POINT('Ctrl Pts',(0.,562.550330293935,1.53370977930616));
#1345=CARTESIAN_POINT('Origin',(169.545,514.234129829633,3.99085778081712E-13));
#1346=CARTESIAN_POINT('',(169.545,514.234129829633,2.0000000000004));
#1347=CARTESIAN_POINT('',(169.545,514.234129829633,3.99085778081712E-13));
#1348=CARTESIAN_POINT('',(0.,514.234129829633,2.0000000000004));
#1349=CARTESIAN_POINT('',(169.545,514.234129829633,2.0000000000004));
#1350=CARTESIAN_POINT('',(0.,514.234129829633,3.99085778081712E-13));
#1351=CARTESIAN_POINT('Origin',(169.545,329.4495,0.999999999999426));
#1352=CARTESIAN_POINT('',(420.688,329.4495,-5.74133425986408E-13));
#1353=CARTESIAN_POINT('',(420.688,329.4495,1.99999999999943));
#1354=CARTESIAN_POINT('Origin',(169.545,329.4495,-5.74133425986408E-13));
#1355=CARTESIAN_POINT('Origin',(169.545,329.4495,1.0000000000004));
#1356=CARTESIAN_POINT('',(354.329629829633,329.4495,2.0000000000004));
#1357=CARTESIAN_POINT('',(354.329629829633,329.4495,3.99085778081712E-13));
#1358=CARTESIAN_POINT('Origin',(169.545,329.4495,2.0000000000004));
#1359=CARTESIAN_POINT('Origin',(420.688,0.,-5.74133425986408E-13));
#1360=CARTESIAN_POINT('',(0.,580.5925,-5.74133425986408E-13));
#1361=CARTESIAN_POINT('',(420.688,0.,-5.74133425986408E-13));
#1362=CARTESIAN_POINT('Origin',(420.688,0.,1.99999999999943));
#1363=CARTESIAN_POINT('Origin',(354.329629829633,0.,2.0000000000004));
#1364=CARTESIAN_POINT('',(0.,514.234129829633,2.0000000000004));
#1365=CARTESIAN_POINT('',(354.329629829633,0.,2.0000000000004));
#1366=CARTESIAN_POINT('Origin',(354.329629829633,0.,3.99085778081712E-13));
#1367=CARTESIAN_POINT('Origin',(3.5527136788005E-14,547.413314914817,-30.9521302850237));
#1368=UNCERTAINTY_MEASURE_WITH_UNIT(LENGTH_MEASURE(0.01),#1372,
'DISTANCE_ACCURACY_VALUE',
'Maximum model space distance between geometric entities at asserted c
onnectivities');
#1369=UNCERTAINTY_MEASURE_WITH_UNIT(LENGTH_MEASURE(0.01),#1372,
'DISTANCE_ACCURACY_VALUE',
'Maximum model space distance between geometric entities at asserted c
onnectivities');
#1370=(
GEOMETRIC_REPRESENTATION_CONTEXT(3)
GLOBAL_UNCERTAINTY_ASSIGNED_CONTEXT((#1368))
GLOBAL_UNIT_ASSIGNED_CONTEXT((#1372,#1374,#1375))
REPRESENTATION_CONTEXT('','3D')
);
#1371=(
GEOMETRIC_REPRESENTATION_CONTEXT(3)
GLOBAL_UNCERTAINTY_ASSIGNED_CONTEXT((#1369))
GLOBAL_UNIT_ASSIGNED_CONTEXT((#1372,#1374,#1375))
REPRESENTATION_CONTEXT('','3D')
);
#1372=(
LENGTH_UNIT()
NAMED_UNIT(*)
SI_UNIT(.MILLI.,.METRE.)
);
#1373=(
LENGTH_UNIT()
NAMED_UNIT(*)
SI_UNIT($,.METRE.)
);
#1374=(
NAMED_UNIT(*)
PLANE_ANGLE_UNIT()
SI_UNIT($,.RADIAN.)
);
#1375=(
NAMED_UNIT(*)
SI_UNIT($,.STERADIAN.)
SOLID_ANGLE_UNIT()
);
#1376=SHAPE_DEFINITION_REPRESENTATION(#1377,#1378);
#1377=PRODUCT_DEFINITION_SHAPE('',$,#1380);
#1378=SHAPE_REPRESENTATION('',(#524),#1370);
#1379=PRODUCT_DEFINITION_CONTEXT('part definition',#1384,'design');
#1380=PRODUCT_DEFINITION('SurroundForOptimisationNoRibs',
'SurroundForOptimisationNoRibs v3',#1381,#1379);
#1381=PRODUCT_DEFINITION_FORMATION('',$,#1386);
#1382=PRODUCT_RELATED_PRODUCT_CATEGORY(
'SurroundForOptimisationNoRibs v3','SurroundForOptimisationNoRibs v3',(#1386));
#1383=APPLICATION_PROTOCOL_DEFINITION('international standard',
'automotive_design',2009,#1384);
#1384=APPLICATION_CONTEXT(
'Core Data for Automotive Mechanical Design Process');
#1385=PRODUCT_CONTEXT('part definition',#1384,'mechanical');
#1386=PRODUCT('SurroundForOptimisationNoRibs',
'SurroundForOptimisationNoRibs v3',$,(#1385));
#1387=PRESENTATION_STYLE_ASSIGNMENT((#1388));
#1388=SURFACE_STYLE_USAGE(.BOTH.,#1389);
#1389=SURFACE_SIDE_STYLE('',(#1390));
#1390=SURFACE_STYLE_FILL_AREA(#1391);
#1391=FILL_AREA_STYLE('Steel - Satin',(#1392));
#1392=FILL_AREA_STYLE_COLOUR('Steel - Satin',#1393);
#1393=COLOUR_RGB('Steel - Satin',0.627450980392157,0.627450980392157,0.627450980392157);
ENDSEC;
END-ISO-10303-21;
